<svg width="32" height="32" viewBox="0 0 32 32" fill="none" xmlns="http://www.w3.org/2000/svg">
<g clip-path="url(#clip0_606_2137)">
<path d="M30.1343 15.1861L12.1075 2.16771C11.2978 1.58283 10.1736 1.73483 9.5481 2.51346L3.62366 9.88752C2.94991 10.7263 3.11997 11.9623 3.99572 12.5877L19.9439 23.9768C20.1099 24.0953 20.3101 24.1565 20.514 24.151C20.718 24.1455 20.9145 24.0736 21.0739 23.9463L30.1706 16.6786C30.654 16.2925 30.6373 15.5493 30.1343 15.1861ZM23.4988 16.844C22.9811 16.844 22.5613 16.4242 22.5613 15.9065C22.5613 15.3887 22.9811 14.969 23.4988 14.969C24.0166 14.969 24.4363 15.3887 24.4363 15.9065C24.4363 16.4242 24.0166 16.844 23.4988 16.844Z" fill="#253678"/>
<path d="M31.2453 18.2202L31.5909 18.4564C32.0406 18.7631 32.1367 19.3917 31.7916 19.8195L27.3891 25.2745C27.0759 25.6632 26.514 25.7362 26.1122 25.447L24.0547 23.9658L31.2453 18.2202Z" fill="#253678"/>
<path d="M9.92438 19.6827C9.49806 19.3864 9.3925 18.7993 9.6925 18.3727L10.4219 17.3371L18.0275 22.769L17.385 23.7121C17.0922 24.1428 16.5014 24.252 16.0756 23.9546L15.1377 23.3033C12.8005 25.9292 9.51025 27.344 6.14575 27.344H4.875V29.2502C4.875 29.768 4.45525 30.1877 3.9375 30.1877C3.41975 30.1877 3 29.768 3 29.2502V19.6877C3 19.17 3.41975 18.7502 3.9375 18.7502C4.45525 18.7502 4.875 19.17 4.875 19.6877V21.719H6.63375C8.10161 21.7187 9.51216 21.1492 10.5687 20.1302L9.92438 19.6827Z" fill="#CDD5F5"/>
</g>
<defs>
<clipPath id="clip0_606_2137">
<rect width="32" height="32" fill="white"/>
</clipPath>
</defs>
</svg>
