<svg width="64" height="64" viewBox="0 0 64 64" fill="none" xmlns="http://www.w3.org/2000/svg">
<rect width="64" height="64" rx="6" fill="white"/>
<g clip-path="url(#clip0_583_3663)">
<path d="M43.875 15.75C46.2812 15.75 48.25 17.7188 48.25 20.125C48.25 20.4688 48.5312 20.75 48.875 20.75C49.2188 20.75 49.5 20.4688 49.5 20.125C49.5 17.0312 46.9688 14.5 43.875 14.5C43.5312 14.5 43.25 14.7812 43.25 15.125C43.25 15.4688 43.5312 15.75 43.875 15.75Z" fill="#253678"/>
<path d="M43.875 18.25C44.9062 18.25 45.75 19.0938 45.75 20.125C45.75 20.4688 46.0312 20.75 46.375 20.75C46.7188 20.75 47 20.4688 47 20.125C47 18.4062 45.5938 17 43.875 17C43.5312 17 43.25 17.2812 43.25 17.625C43.25 17.9688 43.5312 18.25 43.875 18.25ZM43.875 13.25C47.6562 13.25 50.75 16.3438 50.75 20.125C50.75 20.4688 51.0312 20.75 51.375 20.75C51.7188 20.75 52 20.4688 52 20.125C52 15.6562 48.3438 12 43.875 12C43.5312 12 43.25 12.2812 43.25 12.625C43.25 12.9688 43.5312 13.25 43.875 13.25ZM32.0625 14.0938C30.7187 12.75 28.9062 12 27 12C25.0938 12 23.3125 12.75 21.9375 14.0938L20.2188 15.8125L19.3125 14.9062C18.0938 13.6875 16.125 13.6875 14.9062 14.9062C14.3125 15.5 14 16.2812 14 17.125C14 17.9688 14.3125 18.75 14.9062 19.3438L15.8125 20.25L14.0938 21.9688C11.3125 24.75 11.3125 29.3125 14.0938 32.0938L31.9375 49.9375C33.2812 51.2812 35.0938 52.0312 37 52.0312C38.9062 52.0312 40.7187 51.2812 42.0625 49.9375L49.9062 42.0938C51.25 40.75 52 38.9375 52 37.0312C52 35.125 51.25 33.3125 49.9062 31.9688L32.0625 14.0938ZM15.7813 18.4375C15.4375 18.0938 15.2188 17.625 15.2188 17.125C15.2188 16.625 15.4063 16.1562 15.7813 15.8125C16.5 15.0938 17.6875 15.0938 18.4375 15.8125L19.3438 16.7188L16.6875 19.3438L15.7813 18.4375ZM49.0312 41.1562L41.1875 49C38.875 51.3125 35.125 51.3125 32.8437 49L14.9688 31.1875C12.6875 28.875 12.6875 25.125 14.9688 22.8438L22.8438 14.9688C23.9688 13.8438 25.5 13.25 27 13.25C28.5 13.25 30.0312 13.8125 31.1875 14.9688L49.0312 32.8125C50.1562 33.9375 50.75 35.4062 50.75 37C50.75 38.5625 50.125 40.0625 49.0312 41.1562Z" fill="#253678"/>
<path d="M30.1562 15.8438C28.4062 14.0937 25.5625 14.0937 23.8438 15.8438L15.8438 23.8438C15 24.6875 14.5312 25.8125 14.5312 27C14.5312 28.1875 15 29.3125 15.8438 30.1562L33.8438 48.1562C34.7188 49.0312 35.875 49.4688 37 49.4688C38.125 49.4688 39.2812 49.0312 40.1562 48.1562L48.1562 40.1562C49 39.3125 49.4688 38.1875 49.4688 37C49.4688 35.8125 49 34.6875 48.1562 33.8438L30.1562 15.8438ZM15.7812 27C15.7812 26.125 16.125 25.3438 16.7188 24.7188L24.7188 16.7188C25.3438 16.0938 26.1562 15.7812 27 15.7812C27.8438 15.7812 28.6562 16.0938 29.2812 16.7188L37.8438 25.2812L25.2812 37.8438L16.7188 29.2812C16.125 28.6562 15.7812 27.875 15.7812 27ZM47.2812 39.2813L39.2813 47.2812C38.0313 48.5312 35.9688 48.5312 34.7188 47.2812L26.1562 38.7188L38.7188 26.1562L47.2812 34.7188C48.5312 35.9688 48.5312 38.0313 47.2812 39.2813Z" fill="#253678"/>
<path d="M26.876 32.1562C27.5322 32.1562 28.2197 31.9062 28.6885 31.4375L31.4385 28.6875C32.4072 27.7187 32.4072 26.0312 31.4385 25.0625L29.6885 23.3125C29.0322 22.6562 27.9072 22.6562 27.2822 23.2812L26.1572 22.1562C25.0322 21.0312 23.2197 21.0625 22.126 22.1562C21.0322 23.25 20.876 24.9375 22.126 26.1875L23.251 27.3125C22.5635 28 22.5322 28.9375 23.2822 29.7187L25.0322 31.4687C25.5635 31.9062 26.2197 32.1562 26.876 32.1562ZM23.001 23C23.501 22.5 24.5322 22.2812 25.251 23L26.376 24.125L24.126 26.375L23.001 25.25C22.2197 24.4687 22.501 23.5312 23.001 23ZM24.1885 28.0937L28.0947 24.1875C28.3135 23.9687 28.5635 23.9687 28.7822 24.1875L30.5322 25.9375C31.001 26.4062 31.001 27.3125 30.5322 27.7812L27.7822 30.5312C27.3135 31 26.4072 31 25.9072 30.5312L24.1885 28.8125C24.001 28.625 24.0322 28.25 24.1885 28.0937ZM41.9072 34.2812C41.2197 33.5937 40.2197 33.625 39.5635 34.2812L36.7197 37.125L35.6885 36.0937C34.5322 34.9375 33.0322 34.9375 31.876 36.0937C31.3135 36.6562 31.001 37.3125 31.001 38C31.001 38.6875 31.3135 39.3437 31.876 39.9062L33.3447 41.375C33.5947 41.625 33.9697 41.625 34.2197 41.375C34.4697 41.125 34.4697 40.75 34.2197 40.5L32.751 39.0312C32.5322 38.8125 32.251 38.4375 32.251 38C32.251 37.5625 32.5322 37.2187 32.751 36.9687C32.9697 36.75 33.3447 36.4687 33.7822 36.4687C34.2197 36.4687 34.5635 36.75 34.8135 36.9687L35.8447 38C35.2197 38.625 35.251 39.5937 35.9072 40.25L37.5635 41.9062C38.0322 42.375 38.6572 42.5937 39.2822 42.5937C39.9072 42.5937 40.5322 42.375 41.001 41.9062L43.5635 39.3437C44.4697 38.4375 44.4697 36.8125 43.5635 35.9062L41.9072 34.2812ZM42.6572 38.5L40.0947 41.0625C39.6572 41.5 38.8447 41.5 38.4072 41.0625L36.7822 39.4375C36.6572 39.3125 36.6572 38.9687 36.7822 38.8437L40.4385 35.1875C40.5947 35.0312 40.876 35.0312 41.0322 35.1875L42.6885 36.8437C43.0947 37.25 43.0947 38.0625 42.6572 38.5Z" fill="#253678"/>
</g>
<defs>
<clipPath id="clip0_583_3663">
<rect width="40" height="40" fill="white" transform="translate(12 12)"/>
</clipPath>
</defs>
</svg>
