<svg width="64" height="64" viewBox="0 0 64 64" fill="none" xmlns="http://www.w3.org/2000/svg">
<rect width="64" height="64" rx="6" fill="white"/>
<g clip-path="url(#clip0_583_2764)">
<path fill-rule="evenodd" clip-rule="evenodd" d="M14.3437 48.1874C14.0366 48.1874 13.7812 47.9321 13.7812 47.625V16.375C13.7812 16.068 14.0366 15.8126 14.3437 15.8126H15.515C16.0673 15.8126 16.515 15.3649 16.515 14.8126C16.515 14.2603 16.0673 13.8126 15.515 13.8126H14.3437C12.932 13.8126 11.7812 14.9634 11.7812 16.375V47.625C11.7812 49.0367 12.932 50.1874 14.3437 50.1874H49.6562C51.0678 50.1874 52.2187 49.0368 52.2187 47.625V16.375C52.2187 14.9633 51.0678 13.8126 49.6562 13.8126H22.5462C21.9939 13.8126 21.5462 14.2603 21.5462 14.8126C21.5462 15.3649 21.9939 15.8126 22.5462 15.8126H49.6562C49.9634 15.8126 50.2187 16.068 50.2187 16.375V47.625C50.2187 47.932 49.9634 48.1874 49.6562 48.1874H14.3437Z" fill="#253678"/>
<path fill-rule="evenodd" clip-rule="evenodd" d="M12.4063 21.0625C12.4063 21.6148 12.854 22.0625 13.4063 22.0625H22.1562C24.0824 22.0625 25.7088 20.7285 26.1581 18.9375H50.6061C51.1583 18.9375 51.6061 18.4898 51.6061 17.9375C51.6061 17.3853 51.1583 16.9375 50.6061 16.9375H25.2811C24.7289 16.9375 24.2811 17.3853 24.2811 17.9375C24.2811 19.104 23.3225 20.0625 22.1562 20.0625H13.4063C12.854 20.0625 12.4063 20.5102 12.4063 21.0625Z" fill="#253678"/>
<path fill-rule="evenodd" clip-rule="evenodd" d="M18.0309 17.9375C18.0309 18.4898 18.4786 18.9375 19.0309 18.9375C19.5832 18.9375 20.0315 18.4898 20.0315 17.9375C20.0315 17.3853 19.5838 16.9375 19.0315 16.9375C18.4792 16.9375 18.0309 17.3853 18.0309 17.9375Z" fill="#253678"/>
<path fill-rule="evenodd" clip-rule="evenodd" d="M21.156 17.9375C21.156 18.4898 21.6037 18.9375 22.156 18.9375C22.7083 18.9375 23.1566 18.4898 23.1566 17.9375C23.1566 17.3853 22.7089 16.9375 22.1566 16.9375C21.6043 16.9375 21.156 17.3853 21.156 17.9375Z" fill="#253678"/>
<path fill-rule="evenodd" clip-rule="evenodd" d="M14.9058 17.9375C14.9058 18.4898 15.3535 18.9375 15.9058 18.9375C16.4581 18.9375 16.9064 18.4898 16.9064 17.9375C16.9064 17.3853 16.4587 16.9375 15.9064 16.9375C15.3541 16.9375 14.9058 17.3853 14.9058 17.9375Z" fill="#253678"/>
<path fill-rule="evenodd" clip-rule="evenodd" d="M20.307 35.6257C22.6397 39.6581 27.0018 42.375 31.9999 42.375C36.9981 42.375 41.3602 39.6581 43.6929 35.6257C43.8721 35.316 43.8721 34.934 43.6929 34.6242C41.3602 30.5919 36.9981 27.875 31.9999 27.875C27.0018 27.875 22.6397 30.5919 20.307 34.6242C20.1278 34.934 20.1278 35.3159 20.307 35.6257ZM22.3452 35.125C24.3962 31.9635 27.9546 29.875 31.9999 29.875C36.0452 29.875 39.6037 31.9635 41.6547 35.125C39.6037 38.2866 36.0453 40.375 31.9999 40.375C27.9546 40.375 24.3962 38.2866 22.3452 35.125Z" fill="#253678"/>
<path fill-rule="evenodd" clip-rule="evenodd" d="M31.9999 37.25C30.8311 37.25 29.875 36.2939 29.875 35.125C29.875 33.9561 30.8311 33 31.9999 33C33.1688 33 34.1249 33.9561 34.1249 35.125C34.1249 36.2939 33.1688 37.25 31.9999 37.25ZM27.875 35.125C27.875 37.3984 29.7265 39.25 31.9999 39.25C34.2734 39.25 36.1249 37.3984 36.1249 35.125C36.1249 32.8515 34.2734 31 31.9999 31C29.7265 31 27.875 32.8515 27.875 35.125Z" fill="#253678"/>
<path fill-rule="evenodd" clip-rule="evenodd" d="M15.9063 28.3128C16.4586 28.3128 16.9063 27.8651 16.9063 27.3128V25.1877H19.0315C19.5838 25.1877 20.0315 24.74 20.0315 24.1877C20.0315 23.6354 19.5838 23.1877 19.0315 23.1877H15.9063C15.354 23.1877 14.9063 23.6354 14.9063 24.1877V27.3128C14.9063 27.8651 15.354 28.3128 15.9063 28.3128Z" fill="#253678"/>
<path fill-rule="evenodd" clip-rule="evenodd" d="M14.9063 46.0625C14.9063 46.6147 15.354 47.0625 15.9063 47.0625H19.0315C19.5838 47.0625 20.0315 46.6147 20.0315 46.0625C20.0315 45.5102 19.5838 45.0625 19.0315 45.0625H16.9063V42.9374C16.9063 42.3851 16.4586 41.9374 15.9063 41.9374C15.354 41.9374 14.9063 42.3851 14.9063 42.9374V46.0625Z" fill="#253678"/>
<path fill-rule="evenodd" clip-rule="evenodd" d="M48.0937 28.3128C48.646 28.3128 49.0937 27.8651 49.0937 27.3128V24.1877C49.0937 23.6354 48.646 23.1877 48.0937 23.1877H44.9686C44.4163 23.1877 43.9686 23.6354 43.9686 24.1877C43.9686 24.74 44.4163 25.1877 44.9686 25.1877H47.0937V27.3128C47.0937 27.8651 47.5414 28.3128 48.0937 28.3128Z" fill="#253678"/>
<path fill-rule="evenodd" clip-rule="evenodd" d="M43.9686 46.0625C43.9686 46.6147 44.4163 47.0625 44.9686 47.0625H48.0937C48.646 47.0625 49.0937 46.6147 49.0937 46.0625V42.9374C49.0937 42.3851 48.646 41.9374 48.0937 41.9374C47.5414 41.9374 47.0937 42.3851 47.0937 42.9374V45.0625H44.9686C44.4163 45.0625 43.9686 45.5102 43.9686 46.0625Z" fill="#253678"/>
<path fill-rule="evenodd" clip-rule="evenodd" d="M40.4526 46.0625C40.4526 46.6147 40.9004 47.0625 41.4526 47.0625C42.0049 47.0625 42.4533 46.6147 42.4533 46.0625C42.4533 45.5102 42.0056 45.0625 41.4533 45.0625C40.901 45.0625 40.4526 45.5102 40.4526 46.0625Z" fill="#253678"/>
<path fill-rule="evenodd" clip-rule="evenodd" d="M18.0303 14.8126C18.0303 15.3649 18.478 15.8126 19.0303 15.8126C19.5826 15.8126 20.0309 15.3649 20.0309 14.8126C20.0309 14.2603 19.5832 13.8126 19.0309 13.8126C18.4786 13.8126 18.0303 14.2603 18.0303 14.8126Z" fill="#253678"/>
</g>
<defs>
<clipPath id="clip0_583_2764">
<rect width="40" height="40" fill="white" transform="translate(12 12)"/>
</clipPath>
</defs>
</svg>
