<svg width="381" height="48" fill="none" xmlns="http://www.w3.org/2000/svg"><path d="M50.5 4h-49A1.5 1.5 0 000 5.5V14h52V5.5A1.5 1.5 0 0050.5 4zM38 11h-2a1.5 1.5 0 010-3h2a1.5 1.5 0 110 3zm7 0h-2a1.5 1.5 0 010-3h2a1.5 1.5 0 110 3z" fill="#515E93"/><path fill-rule="evenodd" clip-rule="evenodd" d="M4 17v8.136c0 5.84 2.288 11.33 6.444 15.46C14.599 44.726 20.124 47 26 47c5.876 0 11.401-2.274 15.556-6.404 4.156-4.13 6.444-9.62 6.444-15.46V17H4zm27.061 13.935a.961.961 0 01.232-.03c.411 0 .707.313.697.746v.51c0 .5-.411.908-.914.908h-.112l.145.351c.237.577.43 1.549.43 2.174v4.341c0 .5-.41.909-.913.909H29.43a.914.914 0 01-.915-.909V38.85h-10.29v1.086c0 .5-.41.909-.914.909h-1.195a.914.914 0 01-.914-.909v-4.341c0-.62.193-1.597.43-2.174l.146-.35h-.097a.914.914 0 01-.915-.91v-.509c0-.433.296-.745.707-.745.077 0 .155.01.232.029l.856.235.905-2.182c.256-.616 1.016-1.12 1.688-1.12h8.452c.677 0 1.432.504 1.688 1.12l.905 2.187.866-.24h-.005zm-13.84 1.634l1.363-3.307h-.004c.154-.37.604-.674 1.01-.674h7.557c.407 0 .857.303 1.011.674l1.365 3.307c.154.37-.049.674-.455.674H17.665c-.392 0-.595-.303-.445-.674zm3.052 4.183c0 .197-.165.361-.363.361h-2.598a.364.364 0 01-.363-.36v-1.241c0-.197.165-.36.363-.36h2.598c.198 0 .363.163.363.36v1.24zm9.516 0c0 .197-.165.361-.363.361h-2.598a.364.364 0 01-.363-.36v-1.241c0-.197.165-.36.363-.36h2.598c.198 0 .363.163.363.36v1.24zm7.685-12.067h-1.538l-.005-.005-16.056-5.087a.722.722 0 00-.228-.034.737.737 0 00-.71.52l-.35 1.086a.766.766 0 00.05.568.744.744 0 00.435.365l15.684 4.966v12.189c0 .413.338.745.75.745h1.968c.417 0 .75-.337.75-.745V25.43a.748.748 0 00-.75-.745zm-16.69-3.01l.242-.755a.45.45 0 00-.29-.567.456.456 0 00-.571.288l-.242.755c-.077.24.058.49.29.567a.47.47 0 00.14.02.448.448 0 00.431-.313v.005zm2.651.841l.242-.755a.454.454 0 00-.29-.567.456.456 0 00-.57.289l-.243.754a.451.451 0 00.436.587.448.448 0 00.43-.313l-.005.005zm2.651.842l.242-.755a.451.451 0 00-.295-.568.456.456 0 00-.57.289l-.243.755c-.077.24.059.49.29.567.05.014.093.02.141.02a.448.448 0 00.43-.313l.005.005zm2.647.836l.241-.755a.45.45 0 00-.29-.567.456.456 0 00-.57.288l-.242.755c-.078.24.058.49.29.568.048.014.092.019.14.019a.448.448 0 00.43-.313v.005zm2.65.842l.243-.755a.454.454 0 00-.29-.568.456.456 0 00-.571.289l-.242.755c-.078.24.058.49.29.567.048.014.092.02.14.02a.448.448 0 00.43-.313v.005zm2.652.84l.242-.754a.455.455 0 00-.866-.279l-.242.755c-.078.24.058.49.29.567.048.015.092.02.14.02a.448.448 0 00.431-.313l.005.005z" fill="#515E93"/><path d="M68 21.714V5.01h3.7l5.29 9.401 5.266-9.401h3.6v16.703h-3.725V11.095l-4.122 7.278h-2.21L71.7 11.095v10.619H68zM97.254 22a9.964 9.964 0 01-3.105-.477 7.63 7.63 0 01-2.632-1.48c-.762-.684-1.366-1.566-1.813-2.648-.43-1.082-.646-2.386-.646-3.913v-.478c0-1.463.215-2.712.646-3.746.447-1.05 1.051-1.909 1.813-2.577a7.629 7.629 0 012.632-1.48 9.962 9.962 0 013.105-.476c1.092 0 2.127.159 3.104.477a7.377 7.377 0 012.608 1.48c.778.667 1.382 1.526 1.813 2.576.447 1.034.67 2.283.67 3.746v.478c0 1.527-.223 2.831-.67 3.913-.431 1.082-1.035 1.964-1.813 2.648a7.378 7.378 0 01-2.608 1.48 9.963 9.963 0 01-3.104.477zm0-3.006c.761 0 1.465-.168 2.11-.502.663-.35 1.193-.922 1.59-1.718.414-.81.621-1.909.621-3.292v-.478c0-1.304-.207-2.338-.621-3.102-.397-.78-.927-1.336-1.59-1.67a4.526 4.526 0 00-2.11-.501c-.745 0-1.449.167-2.111.501-.663.334-1.2.89-1.615 1.67-.397.764-.596 1.798-.596 3.102v.478c0 1.384.199 2.481.596 3.292.414.796.952 1.368 1.615 1.718a4.623 4.623 0 002.11.502zM108.673 21.714V5.01h3.7v11.095l7.575-11.095h3.576v16.703h-3.7V10.618l-7.6 11.096h-3.551zm7.425-17.658c-1.059 0-1.945-.15-2.657-.453-.695-.318-1.209-.771-1.54-1.36-.331-.605-.496-1.352-.496-2.243h3.129c0 .764.132 1.288.397 1.575.265.286.654.43 1.167.43.547 0 .952-.144 1.217-.43.265-.286.398-.811.398-1.575h3.129c0 .89-.166 1.638-.497 2.243-.331.589-.844 1.042-1.539 1.36-.696.302-1.598.453-2.708.453zM136.83 22a6.27 6.27 0 01-.546-.024 18.613 18.613 0 01-.447-.048v-2.84c.132.017.281.033.447.049h.546c.48 0 .853-.056 1.118-.167a1.16 1.16 0 00.596-.55c.149-.254.323-.58.521-.978l-7.078-12.431h4.024l4.867 8.948 3.875-8.948h3.874l-5.886 12.885c-.348.732-.704 1.36-1.068 1.885a4.897 4.897 0 01-1.217 1.288c-.447.319-.96.55-1.54.692-.579.16-1.275.239-2.086.239zM150.873 21.714V5.01h3.701l5.29 9.401 5.265-9.401h3.601v16.703h-3.725V11.095l-4.123 7.278h-2.21l-4.098-7.278v10.619h-3.701zM172.701 21.714V5.01h3.701v6.633h7.45V5.011h3.701v16.703h-3.701v-7.111h-7.45v7.11h-3.701zM191.57 21.714V5.01h3.701v5.965h2.483c2.368 0 4.115.493 5.241 1.48 1.125.97 1.688 2.266 1.688 3.889 0 1.623-.563 2.927-1.688 3.913-1.126.97-2.873 1.456-5.241 1.456h-6.184zm3.701-2.96h2.111c1.324 0 2.251-.214 2.781-.643.547-.43.82-1.018.82-1.766s-.273-1.336-.82-1.766c-.53-.43-1.457-.644-2.781-.644h-2.111v4.82zm11.176 2.96V5.01h3.725v16.703h-3.725zM214.15 21.714V5.01h3.701v11.095l7.574-11.095h3.577v16.703h-3.701V10.618l-7.599 11.096h-3.552zm7.426-17.658c-1.06 0-1.946-.15-2.658-.453-.695-.318-1.208-.771-1.539-1.36-.331-.605-.497-1.352-.497-2.243h3.129c0 .764.133 1.288.398 1.575.264.286.654.43 1.167.43.546 0 .952-.144 1.217-.43.265-.286.397-.811.397-1.575h3.129c0 .89-.165 1.638-.496 2.243-.331.589-.845 1.042-1.54 1.36-.696.302-1.598.453-2.707.453zM239.228 21.714V5.01h3.7v13.744h4.719V5.01h3.701v13.744h4.743V5.01h3.725v16.703h-20.588zM263.399 22c-.132 0-.298-.008-.497-.024-.198 0-.364-.016-.496-.048v-3.197c.049.016.174.024.372.024.331 0 .629-.048.894-.143.265-.112.489-.342.671-.692.182-.35.331-.851.447-1.504.116-.668.199-1.535.248-2.6.066-1.082.1-2.426.1-4.033V5.011h12.666v16.703h-3.726V7.97h-5.414v2.29c0 2.02-.074 3.73-.223 5.13-.149 1.384-.373 2.514-.671 3.389-.281.875-.637 1.543-1.068 2.004-.414.461-.902.78-1.465.954a6.167 6.167 0 01-1.838.263zM280.029 21.714l6.457-16.703h3.701l6.482 16.703h-3.924l-1.341-3.412h-6.433l-1.316 3.412h-3.626zm6.085-6.371h4.172L288.2 9.544l-2.086 5.799zM298.915 21.714V5.01h11.4V7.97h-7.699v13.744h-3.701zM312.812 21.714V5.01h12.244V7.97h-8.543v3.197h3.228c2.368 0 4.115.485 5.241 1.456 1.125.97 1.688 2.243 1.688 3.817 0 1.575-.563 2.848-1.688 3.818-1.126.97-2.873 1.456-5.241 1.456h-6.929zm3.701-2.96h2.856c1.357 0 2.293-.198 2.806-.596.53-.413.795-.986.795-1.718 0-.731-.265-1.296-.795-1.694-.513-.413-1.449-.62-2.806-.62h-2.856v4.629zM327.371 21.714l6.458-16.703h3.7l6.482 16.703h-3.924l-1.341-3.412h-6.432l-1.317 3.412h-3.626zm6.085-6.371h4.172l-2.086-5.799-2.086 5.799zM348.1 22a6.27 6.27 0 01-.546-.024 18.613 18.613 0 01-.447-.048v-2.84c.132.017.281.033.447.049h.546c.48 0 .853-.056 1.118-.167a1.16 1.16 0 00.596-.55c.149-.254.323-.58.521-.978l-7.078-12.431h4.024l4.867 8.948 3.875-8.948h3.874l-5.886 12.885c-.348.732-.704 1.36-1.068 1.885a4.897 4.897 0 01-1.217 1.288c-.447.319-.96.55-1.54.692-.579.16-1.275.239-2.086.239zM362.143 21.714V5.01h3.701l5.29 9.401 5.265-9.401H380v16.703h-3.725V11.095l-4.123 7.278h-2.21l-4.098-7.278v10.619h-3.701z" fill="#515E93"/><path d="M68 45.23V36h1.341v9.23H68zM74.67 45.23v-8.149h-3.468V36h8.276v1.081h-3.467v8.15H74.67zM87.398 45.363a3.953 3.953 0 01-1.754-.383 2.961 2.961 0 01-1.228-1.187c-.294-.527-.442-1.19-.442-1.99v-.264c0-.757.162-1.39.485-1.9.324-.51.747-.892 1.27-1.147a3.762 3.762 0 011.67-.382c.599 0 1.112.101 1.54.303.438.194.79.462 1.056.805.267.334.447.712.542 1.134h-1.284a2.34 2.34 0 00-.642-.844c-.266-.229-.67-.343-1.213-.343-.37 0-.718.083-1.041.25-.323.159-.59.414-.8.765-.199.343-.299.796-.299 1.358v.264c0 .598.1 1.081.3 1.45.21.37.475.638.799.805.323.167.67.25 1.041.25.467 0 .857-.105 1.17-.316a1.7 1.7 0 00.685-.87h1.284a2.883 2.883 0 01-.613 1.2 3.02 3.02 0 01-1.084.778 3.762 3.762 0 01-1.442.264zM92.249 45.23v-6.988h1.255v5.275l3.91-5.275h1.255v6.989h-1.255v-5.275l-3.91 5.275H92.25zM103.882 45.363a3.951 3.951 0 01-1.755-.383 2.957 2.957 0 01-1.227-1.187c-.295-.527-.442-1.19-.442-1.99v-.264c0-.757.161-1.39.485-1.9.323-.51.747-.892 1.27-1.147a3.76 3.76 0 011.669-.382c.599 0 1.113.101 1.541.303.438.194.79.462 1.056.805.266.334.447.712.542 1.134h-1.284a2.337 2.337 0 00-.642-.844c-.266-.229-.671-.343-1.213-.343-.371 0-.718.083-1.041.25-.324.159-.59.414-.799.765-.2.343-.3.796-.3 1.358v.264c0 .598.1 1.081.3 1.45.209.37.475.638.799.805.323.167.67.25 1.041.25.466 0 .856-.105 1.17-.316.324-.21.552-.5.685-.87h1.284a2.891 2.891 0 01-.613 1.2 3.024 3.024 0 01-1.085.778 3.76 3.76 0 01-1.441.264zM110.459 45.23v-5.96h-2.583v-1.028h6.421v1.028h-2.583v5.96h-1.255zM118.727 45.363a4.293 4.293 0 01-1.798-.383 3.146 3.146 0 01-1.341-1.173c-.333-.528-.5-1.196-.5-2.005v-.264c0-.773.162-1.41.485-1.912a2.98 2.98 0 011.284-1.134 3.952 3.952 0 011.727-.382c1.113 0 1.974.281 2.582.844.609.563.914 1.358.914 2.387v.738h-5.736c0 .545.119.98.356 1.306.248.325.552.562.914.712.371.14.742.21 1.113.21.57 0 1.008-.087 1.312-.263.314-.176.538-.418.671-.725h1.227a2.3 2.3 0 01-1.127 1.53c-.59.342-1.284.514-2.083.514zm-.072-6.198c-.39 0-.761.07-1.113.21a1.959 1.959 0 00-.87.634c-.219.29-.328.663-.328 1.12h4.551c-.009-.483-.119-.865-.328-1.147-.2-.29-.466-.496-.799-.62a3 3 0 00-1.113-.197zM123.864 45.23v-6.988h1.341l2.697 4.351 2.697-4.351h1.255v6.989h-1.255v-5.077l-2.24 3.56h-.999l-2.24-3.56v5.077h-1.256zM136.288 45.363c-.552 0-1.023-.093-1.413-.277a2.12 2.12 0 01-.87-.778 2.14 2.14 0 01-.3-1.121c0-.695.219-1.196.657-1.503.447-.308 1.084-.462 1.912-.462h2.454v-.475c0-.597-.148-1.01-.443-1.24-.285-.228-.718-.342-1.298-.342-.542 0-.937.096-1.184.29-.248.185-.386.395-.414.633h-1.256c.029-.378.167-.712.414-1.002.247-.3.585-.536 1.013-.712.428-.176.928-.264 1.498-.264.6 0 1.118.088 1.556.264a2.03 2.03 0 011.013.804c.237.36.356.84.356 1.437v3.811c.01.273.034.541.072.805h-1.099a6.265 6.265 0 01-.057-.567c-.01-.185-.014-.392-.014-.62-.2.37-.524.681-.971.936-.447.255-.989.383-1.626.383zm.271-1.055c.399 0 .761-.066 1.084-.198a1.76 1.76 0 00.785-.58c.2-.255.3-.567.3-.937v-.474h-2.24c-.467 0-.833.088-1.099.263-.266.167-.4.436-.4.805 0 .325.124.593.371.804.257.211.657.317 1.199.317zM145.768 45.23v-6.988h1.256v2.927h.998l2.825-2.927h1.484l-3.281 3.35 3.424 3.639h-1.598l-2.854-3.06h-.998v3.06h-1.256zM156.835 45.363a4.3 4.3 0 01-1.798-.383 3.25 3.25 0 01-1.341-1.187c-.333-.527-.499-1.19-.499-1.99v-.264c0-.757.166-1.39.499-1.9.343-.51.79-.892 1.341-1.147a4.3 4.3 0 011.798-.382c.647 0 1.246.127 1.798.382s.994.638 1.327 1.148c.342.51.514 1.142.514 1.898v.264c0 .8-.172 1.464-.514 1.991a3.148 3.148 0 01-1.327 1.187 4.234 4.234 0 01-1.798.383zm0-1.055c.39 0 .761-.08 1.113-.238.362-.167.657-.435.885-.804.238-.37.357-.857.357-1.464v-.264c0-.562-.119-1.015-.357-1.358a1.993 1.993 0 00-.885-.765 2.565 2.565 0 00-1.113-.25c-.38 0-.751.083-1.113.25a2.087 2.087 0 00-.899.765c-.228.343-.342.796-.342 1.358v.264c0 .607.114 1.095.342 1.464.238.37.538.637.899.804.362.159.733.238 1.113.238zM162.252 45.23v-6.988h1.255v2.914h3.91v-2.914h1.255v6.989h-1.255v-3.046h-3.91v3.046h-1.255zM172.687 45.23v-5.96h-2.583v-1.028h6.421v1.028h-2.583v5.96h-1.255zM177.955 47.868v-9.626h1.17v1.318a2.623 2.623 0 011.07-1.068c.466-.255 1.004-.382 1.612-.382.952 0 1.712.29 2.283.87.571.572.856 1.424.856 2.559v.263c0 .791-.133 1.45-.399 1.978-.257.528-.623.923-1.099 1.187-.466.264-1.013.396-1.641.396-.647 0-1.189-.132-1.626-.396a2.694 2.694 0 01-.971-.989v3.89h-1.255zm3.567-3.534c.618 0 1.132-.215 1.541-.646.418-.43.628-1.06.628-1.886v-.264c0-.764-.21-1.353-.628-1.767-.409-.422-.923-.633-1.541-.633-.457 0-.861.088-1.213.264a2.086 2.086 0 00-.813.725c-.19.3-.286.638-.286 1.016v1.055c0 .422.096.795.286 1.12.2.317.471.568.813.752.352.176.756.264 1.213.264zM189.872 45.363a4.3 4.3 0 01-1.798-.383 3.25 3.25 0 01-1.341-1.187c-.333-.527-.499-1.19-.499-1.99v-.264c0-.757.166-1.39.499-1.9.343-.51.79-.892 1.341-1.147a4.3 4.3 0 011.798-.382c.647 0 1.246.127 1.798.382s.994.638 1.327 1.148c.342.51.514 1.142.514 1.898v.264c0 .8-.172 1.464-.514 1.991a3.148 3.148 0 01-1.327 1.187 4.234 4.234 0 01-1.798.383zm0-1.055c.39 0 .761-.08 1.113-.238.362-.167.656-.435.885-.804.237-.37.356-.857.356-1.464v-.264c0-.562-.119-1.015-.356-1.358a1.998 1.998 0 00-.885-.765 2.565 2.565 0 00-1.113-.25c-.38 0-.751.083-1.113.25a2.087 2.087 0 00-.899.765c-.228.343-.342.796-.342 1.358v.264c0 .607.114 1.095.342 1.464.238.37.538.637.899.804.362.159.733.238 1.113.238zM194.792 45.363c-.066 0-.138-.005-.214-.014a12.643 12.643 0 00-.214-.026v-1.16c.029.008.1.013.214.013a.853.853 0 00.7-.343c.18-.237.309-.65.385-1.24.085-.597.128-1.433.128-2.505v-1.846h5.422v6.989h-1.256v-5.96h-2.91v1.08c0 .977-.048 1.79-.143 2.44-.095.642-.238 1.152-.428 1.53-.181.378-.414.646-.699.804a1.998 1.998 0 01-.985.238zM202.925 45.23l2.054-2.768c-.627-.132-1.079-.37-1.355-.713-.276-.351-.414-.8-.414-1.345 0-.457.1-.844.3-1.16.199-.325.509-.572.927-.739.419-.175.961-.263 1.627-.263h3.281v6.989h-1.255v-2.664h-1.926l-1.841 2.664h-1.398zm1.541-4.826c0 .37.114.65.342.844.238.194.633.29 1.184.29h2.098V39.27h-2.098c-.551 0-.946.097-1.184.29-.228.194-.342.475-.342.844zM215.2 45.23v-6.988h1.255v5.275l3.91-5.275h1.255v6.989h-1.255v-5.275l-3.91 5.275H215.2zM228.474 48c-.143 0-.285-.013-.428-.04v-1.054c.143.026.285.04.428.04.19 0 .347-.045.471-.133.133-.079.266-.242.399-.488.134-.246.295-.61.486-1.094l-3.211-6.99h1.399l2.454 5.671 2.226-5.67h1.341l-2.854 6.989c-.266.66-.523 1.191-.77 1.595-.238.405-.509.7-.814.884-.295.193-.67.29-1.127.29zM235.459 45.23v-6.988h6.278v6.989h-1.255v-5.96h-3.767v5.96h-1.256zM244.015 47.868v-9.626h1.17v1.318a2.623 2.623 0 011.07-1.068c.466-.255 1.003-.382 1.612-.382.951 0 1.712.29 2.283.87.571.572.856 1.424.856 2.559v.263c0 .791-.133 1.45-.399 1.978-.257.528-.623.923-1.099 1.187-.466.264-1.013.396-1.641.396-.647 0-1.189-.132-1.626-.396a2.686 2.686 0 01-.971-.989v3.89h-1.255zm3.567-3.534c.618 0 1.132-.215 1.541-.646.418-.43.627-1.06.627-1.886v-.264c0-.764-.209-1.353-.627-1.767-.409-.422-.923-.633-1.541-.633-.457 0-.861.088-1.213.264a2.073 2.073 0 00-.813.725 1.845 1.845 0 00-.286 1.016v1.055c0 .422.095.795.286 1.12.199.317.47.568.813.752.352.176.756.264 1.213.264zM254.947 45.363c-.551 0-1.022-.093-1.412-.277a2.107 2.107 0 01-.87-.778 2.14 2.14 0 01-.3-1.121c0-.695.219-1.196.656-1.503.447-.308 1.085-.462 1.912-.462h2.454v-.475c0-.597-.147-1.01-.442-1.24-.285-.228-.718-.342-1.298-.342-.543 0-.937.096-1.185.29-.247.185-.385.395-.413.633h-1.256c.028-.378.166-.712.414-1.002.247-.3.585-.536 1.013-.712.428-.176.927-.264 1.498-.264.599 0 1.118.088 1.555.264.438.167.775.435 1.013.804.238.36.357.84.357 1.437v3.811c.009.273.033.541.071.805h-1.098a6.265 6.265 0 01-.057-.567c-.01-.185-.015-.392-.015-.62-.2.37-.523.681-.97.936-.447.255-.989.383-1.627.383zm.272-1.055c.399 0 .76-.066 1.084-.198.333-.132.594-.325.785-.58.199-.255.299-.567.299-.937v-.474h-2.24c-.466 0-.832.088-1.098.263-.267.167-.4.436-.4.805 0 .325.124.593.371.804.257.211.656.317 1.199.317zM260.861 45.23v-6.988h3.281c.628 0 1.142.083 1.541.25.4.159.695.383.885.673.19.281.285.61.285.989 0 .307-.109.602-.328.883-.209.273-.48.462-.813.567.466.106.818.308 1.056.607.247.29.371.633.371 1.029 0 .606-.219 1.09-.657 1.45-.437.36-1.122.54-2.054.54h-3.567zm1.255-1.028h2.312c.532 0 .908-.088 1.127-.264.219-.175.328-.426.328-.751 0-.334-.109-.59-.328-.765-.219-.185-.595-.277-1.127-.277h-2.312v2.057zm0-3.006h2.026c.542 0 .918-.088 1.127-.264.219-.176.329-.418.329-.725 0-.29-.11-.52-.329-.686-.209-.167-.585-.25-1.127-.25h-2.026v1.925zM268.571 45.363a1.91 1.91 0 01-.214-.014 11.49 11.49 0 00-.214-.026v-1.16c.029.008.1.013.214.013a.853.853 0 00.7-.343c.18-.237.309-.65.385-1.24.085-.597.128-1.433.128-2.505v-1.846h5.422v6.989h-1.255v-5.96h-2.911v1.08c0 .977-.048 1.79-.143 2.44-.095.642-.238 1.152-.428 1.53-.181.378-.414.646-.699.804a1.998 1.998 0 01-.985.238zM280.413 45.363a4.292 4.292 0 01-1.797-.383 3.155 3.155 0 01-1.342-1.173c-.332-.528-.499-1.196-.499-2.005v-.264c0-.773.162-1.41.485-1.912a2.98 2.98 0 011.284-1.134 3.952 3.952 0 011.727-.382c1.113 0 1.974.281 2.582.844.609.563.913 1.358.913 2.387v.738h-5.735c0 .545.119.98.356 1.306.248.325.552.562.914.712.371.14.741.21 1.112.21.571 0 1.009-.087 1.313-.263.314-.176.538-.418.671-.725h1.227a2.3 2.3 0 01-1.127 1.53c-.59.342-1.285.514-2.084.514zm-.071-6.198c-.39 0-.761.07-1.113.21a1.959 1.959 0 00-.87.634c-.219.29-.328.663-.328 1.12h4.551c-.009-.483-.119-.865-.328-1.147-.2-.29-.466-.496-.799-.62a3 3 0 00-1.113-.197zM285.551 45.23v-6.988h1.256v2.914h3.909v-2.914h1.256v6.989h-1.256v-3.046h-3.909v3.046h-1.256zM294.26 45.23v-6.988h1.255v5.275l3.91-5.275h1.255v6.989h-1.255v-5.275l-3.91 5.275h-1.255zM302.398 45.23l2.054-2.768c-.628-.132-1.079-.37-1.355-.713-.276-.351-.414-.8-.414-1.345 0-.457.1-.844.3-1.16.199-.325.508-.572.927-.739.419-.175.961-.263 1.627-.263h3.281v6.989h-1.255v-2.664h-1.927l-1.84 2.664h-1.398zm1.541-4.826c0 .37.114.65.342.844.238.194.632.29 1.184.29h2.098V39.27h-2.098c-.552 0-.946.097-1.184.29-.228.194-.342.475-.342.844zM313.817 46.88v-2.678h.927c.143-.176.266-.47.371-.883.105-.422.185-.915.242-1.477.067-.563.1-1.148.1-1.754v-1.846h5.28v5.96h1.07v2.677h-1.199v-1.648h-5.593v1.648h-1.198zm2.211-2.678h3.453V39.27h-2.797v1.082c0 .738-.057 1.455-.171 2.15-.104.685-.266 1.252-.485 1.7zM326.451 45.363a4.293 4.293 0 01-1.798-.383 3.237 3.237 0 01-1.341-1.187c-.333-.527-.5-1.19-.5-1.99v-.264c0-.757.167-1.39.5-1.9.342-.51.789-.892 1.341-1.147a4.294 4.294 0 011.798-.382 4.23 4.23 0 011.797.382c.552.255.994.638 1.327 1.148.343.51.514 1.142.514 1.898v.264c0 .8-.171 1.464-.514 1.991a3.148 3.148 0 01-1.327 1.187 4.23 4.23 0 01-1.797.383zm0-1.055c.389 0 .76-.08 1.112-.238.362-.167.657-.435.885-.804.238-.37.357-.857.357-1.464v-.264c0-.562-.119-1.015-.357-1.358a1.993 1.993 0 00-.885-.765 2.564 2.564 0 00-1.112-.25c-.381 0-.752.083-1.113.25a2.076 2.076 0 00-.899.765c-.229.343-.343.796-.343 1.358v.264c0 .607.114 1.095.343 1.464.237.37.537.637.899.804.361.159.732.238 1.113.238zM334.792 45.363a3.951 3.951 0 01-1.755-.383 2.957 2.957 0 01-1.227-1.187c-.295-.527-.443-1.19-.443-1.99v-.264c0-.757.162-1.39.486-1.9.323-.51.746-.892 1.269-1.147a3.767 3.767 0 011.67-.382c.599 0 1.113.101 1.541.303.437.194.789.462 1.056.805.266.334.447.712.542 1.134h-1.284a2.36 2.36 0 00-.642-.844c-.267-.229-.671-.343-1.213-.343a2.24 2.24 0 00-1.042.25c-.323.159-.59.414-.799.765-.2.343-.299.796-.299 1.358v.264c0 .598.099 1.081.299 1.45.209.37.476.638.799.805.324.167.671.25 1.042.25.466 0 .856-.105 1.17-.316.323-.21.551-.5.685-.87h1.284a2.881 2.881 0 01-.614 1.2 3.02 3.02 0 01-1.084.778 3.764 3.764 0 01-1.441.264zM341.368 45.23v-5.96h-2.582v-1.028h6.42v1.028h-2.582v5.96h-1.256zM347.914 48c-.143 0-.285-.013-.428-.04v-1.054c.143.026.285.04.428.04.19 0 .347-.045.471-.133.133-.079.266-.242.399-.488a10.4 10.4 0 00.485-1.094l-3.21-6.99h1.398l2.455 5.671 2.225-5.67h1.342l-2.854 6.989c-.266.66-.523 1.191-.771 1.595-.237.405-.508.7-.813.884-.295.193-.67.29-1.127.29zM354.899 45.23v-6.988h6.278v6.989h-1.255v-5.96h-3.767v5.96h-1.256zM366.594 45.363a4.293 4.293 0 01-1.798-.383 3.237 3.237 0 01-1.341-1.187c-.333-.527-.5-1.19-.5-1.99v-.264c0-.757.167-1.39.5-1.9.342-.51.789-.892 1.341-1.147a4.294 4.294 0 011.798-.382 4.23 4.23 0 011.797.382c.552.255.994.638 1.327 1.148.343.51.514 1.142.514 1.898v.264c0 .8-.171 1.464-.514 1.991a3.148 3.148 0 01-1.327 1.187 4.23 4.23 0 01-1.797.383zm0-1.055c.39 0 .76-.08 1.112-.238.362-.167.657-.435.885-.804.238-.37.357-.857.357-1.464v-.264c0-.562-.119-1.015-.357-1.358a1.993 1.993 0 00-.885-.765 2.561 2.561 0 00-1.112-.25c-.381 0-.752.083-1.113.25a2.082 2.082 0 00-.899.765c-.229.343-.343.796-.343 1.358v.264c0 .607.114 1.095.343 1.464.238.37.537.637.899.804.361.159.732.238 1.113.238zM372.01 45.23v-6.988h1.341l2.697 4.351 2.696-4.351H380v6.989h-1.256v-5.077l-2.24 3.56h-.998l-2.241-3.56v5.077h-1.255z" fill="#787D8F"/></svg>