<svg width="32" height="32" viewBox="0 0 32 32" fill="none" xmlns="http://www.w3.org/2000/svg">
<path d="M6 31H16C17.3261 31 18.5979 30.4732 19.5355 29.5355C20.4732 28.5979 21 27.3261 21 26V21C21 20.7348 20.8946 20.4804 20.7071 20.2929C20.5196 20.1054 20.2652 20 20 20C19.7348 20 19.4804 20.1054 19.2929 20.2929C19.1054 20.4804 19 20.7348 19 21V23H3V6C3.00237 5.20508 3.31921 4.4434 3.8813 3.8813C4.4434 3.31921 5.20508 3.00237 6 3H10C10.2652 3 10.5196 2.89464 10.7071 2.70711C10.8946 2.51957 11 2.26522 11 2C11 1.73478 10.8946 1.48043 10.7071 1.29289C10.5196 1.10536 10.2652 1 10 1H6C5.34339 1 4.69321 1.12933 4.08658 1.3806C3.47995 1.63188 2.92876 2.00017 2.46447 2.46447C1.52678 3.40215 1 4.67392 1 6V26C1 27.3261 1.52678 28.5979 2.46447 29.5355C2.92876 29.9998 3.47995 30.3681 4.08658 30.6194C4.69321 30.8707 5.34339 31 6 31ZM11 26C11.1978 26 11.3911 26.0586 11.5556 26.1685C11.72 26.2784 11.8482 26.4346 11.9239 26.6173C11.9996 26.8 12.0194 27.0011 11.9808 27.1951C11.9422 27.3891 11.847 27.5673 11.7071 27.7071C11.5673 27.847 11.3891 27.9422 11.1951 27.9808C11.0011 28.0194 10.8 27.9996 10.6173 27.9239C10.4346 27.8482 10.2784 27.72 10.1685 27.5556C10.0586 27.3911 10 27.1978 10 27C10 26.7348 10.1054 26.4804 10.2929 26.2929C10.4804 26.1054 10.7348 26 11 26Z" fill="#253678"/>
<path d="M14.098 1.68034C14.6342 1.2406 15.3061 1.00019 15.9996 1H27.9996C28.693 1.00019 29.365 1.2406 29.9012 1.68034C30.4374 2.12009 30.8047 2.732 30.9406 3.412L21.9996 7.882L13.0586 3.412C13.1945 2.732 13.5618 2.12009 14.098 1.68034Z" fill="#CDD5F5"/>
<path d="M21.553 9.89998L13 5.61798V12C13 12.7956 13.3161 13.5587 13.8787 14.1213C14.4413 14.6839 15.2044 15 16 15H28C28.7956 15 29.5587 14.6839 30.1213 14.1213C30.6839 13.5587 31 12.7956 31 12V5.61798L22.447 9.89998C22.308 9.96881 22.1551 10.0046 22 10.0046C21.8449 10.0046 21.692 9.96881 21.553 9.89998Z" fill="#CDD5F5"/>
</svg>
