<svg width="32" height="32" viewBox="0 0 32 32" fill="none" xmlns="http://www.w3.org/2000/svg">
<g clip-path="url(#clip0_627_5475)">
<path d="M16 5.95257C16.5177 5.95257 16.9375 5.53282 16.9375 5.01507V1.91876C16.9375 1.40101 16.5177 0.981262 16 0.981262C15.4823 0.981262 15.0625 1.40101 15.0625 1.91876V5.01507C15.0625 5.53282 15.4823 5.95257 16 5.95257ZM20.375 7.54376C20.4981 7.54392 20.6201 7.51974 20.7338 7.47261C20.8476 7.42548 20.9509 7.35633 21.0379 7.26914L23.5379 4.76914C23.904 4.40307 23.904 3.80945 23.5379 3.44332C23.1718 3.07726 22.5782 3.07726 22.2121 3.44332L19.7121 5.94333C19.3459 6.30939 19.3459 6.90301 19.7121 7.26914C19.799 7.35633 19.9024 7.42548 20.0161 7.47261C20.1299 7.51974 20.2519 7.54392 20.375 7.54376ZM10.9621 7.2692C11.1452 7.45226 11.3851 7.54382 11.625 7.54382C11.8649 7.54382 12.1049 7.45226 12.2879 7.2692C12.654 6.90314 12.654 6.30951 12.2879 5.94339L9.78788 3.44339C9.42181 3.07732 8.82819 3.07732 8.46206 3.44339C8.09594 3.80945 8.09594 4.40307 8.46206 4.7692L10.9621 7.2692ZM24.4206 14.2316L20.7814 10.5923C20.4331 10.2441 20.0197 9.96785 19.5647 9.77939C19.1098 9.59093 18.6221 9.49394 18.1296 9.49395H12.4372C11.0181 9.49395 9.68406 10.0466 8.68069 11.0499L8.38106 11.3495L8.36169 11.3689H0.9375C0.41975 11.3689 0 11.7886 0 12.3064V22.3064C0 22.8241 0.41975 23.2439 0.9375 23.2439H5.61169L7.83712 25.4693C8.01293 25.6451 8.25137 25.7439 8.5 25.7439H9.34888C9.03469 25.2576 8.83244 24.7143 8.75325 24.1456C8.04434 23.9148 7.41461 23.4893 6.93594 22.9178C5.52381 21.2347 5.74412 18.7166 7.42706 17.3044L10.9903 14.3146H18.1049C18.3536 14.3146 18.5921 14.4133 18.7679 14.5892L21.3854 17.2068C22.2262 18.0475 23.6201 18.0654 24.4464 17.2105C25.2491 16.3801 25.2404 15.0514 24.4206 14.2316Z" fill="#CDD5F5"/>
<path d="M32 14.244C32 13.7261 31.5803 13.3064 31.0625 13.3065H26.0959C27.2946 14.8734 27.1788 17.1302 25.7465 18.5626C24.9916 19.3175 23.9871 19.7332 22.9181 19.7332C21.849 19.7332 20.8445 19.3175 20.0897 18.5626L17.7168 16.1896H11.4973L10.7609 16.8076L8.38245 18.8033C7.49001 19.5521 7.37364 20.8826 8.12245 21.7751C8.87126 22.6675 10.2018 22.7839 11.0942 22.0351C10.2018 22.7839 10.0854 24.1144 10.8342 25.0068C11.583 25.8993 12.9135 26.0156 13.806 25.2668C12.9135 26.0156 12.7971 27.3461 13.5459 28.2386C14.2948 29.131 15.6253 29.2474 16.5177 28.4986L18.178 27.1054L17.9541 27.2933C17.0616 28.0421 16.9453 29.3726 17.6941 30.2651C18.4429 31.1575 19.7734 31.2739 20.6658 30.5251L27.0342 25.1813H31.0626C31.5804 25.1813 32.0001 24.7616 32.0001 24.2438L32 14.244Z" fill="#253678"/>
</g>
<defs>
<clipPath id="clip0_627_5475">
<rect width="32" height="32" fill="white"/>
</clipPath>
</defs>
</svg>
