<svg width="32" height="32" viewBox="0 0 32 32" fill="none" xmlns="http://www.w3.org/2000/svg">
<path d="M25.375 28.125H22.3003L21.6753 26.25H10.3247L9.69969 28.125H6.625C6.10688 28.125 5.6875 28.5444 5.6875 29.0625C5.6875 29.5806 6.10688 30 6.625 30H25.375C25.8931 30 26.3125 29.5806 26.3125 29.0625C26.3125 28.5444 25.8931 28.125 25.375 28.125ZM25.375 5.625C24.8577 5.625 24.4375 6.04519 24.4375 6.5625C24.4375 7.07981 24.8577 7.5 25.375 7.5C25.8923 7.5 26.3125 7.07981 26.3125 6.5625C26.3125 6.04519 25.8923 5.625 25.375 5.625Z" fill="#253678"/>
<path d="M29.125 0H2.8125C1.26169 0 0 1.26175 0 2.8125V18.75H5.6875V15.9375C5.6875 15.4194 6.10688 15 6.625 15H8.0735C8.17055 14.7267 8.28179 14.4587 8.40675 14.197L7.38206 13.1716C7.01581 12.8054 7.01581 12.2122 7.38206 11.846L10.0334 9.19456C10.3997 8.82831 10.9929 8.82831 11.3591 9.19456L12.3845 10.22C12.6462 10.0948 12.9142 9.9832 13.1875 9.88575V8.4375C13.1875 7.91938 13.6069 7.5 14.125 7.5H17.875C18.3931 7.5 18.8125 7.91938 18.8125 8.4375V9.886C19.0857 9.98341 19.3538 10.0949 19.6155 10.22L20.6409 9.19456C21.0071 8.82863 21.6003 8.82863 21.9665 9.19456L24.6179 11.8459C24.9842 12.2122 24.9842 12.8057 24.6179 13.1716L23.5933 14.197C23.7182 14.4587 23.8294 14.7267 23.9265 15H25.375C25.8931 15 26.3125 15.4194 26.3125 15.9375V18.75H32V2.8125C32 1.26169 30.6758 0 29.125 0ZM25.375 9.375C23.8242 9.375 22.5625 8.11325 22.5625 6.5625C22.5625 5.01175 23.8242 3.75 25.375 3.75C26.9258 3.75 28.1875 5.01175 28.1875 6.5625C28.1875 8.11325 26.9258 9.375 25.375 9.375Z" fill="#253678"/>
<path d="M13.1875 17.8125C13.1875 18.1365 13.2622 18.449 13.3694 18.75H18.6306C18.7378 18.449 18.8125 18.1365 18.8125 17.8125C18.8125 16.2617 17.5508 15 16 15C14.449 15 13.1875 16.2617 13.1875 17.8125Z" fill="#253678"/>
<path d="M9.67356 16.1719C9.62151 16.3731 9.50407 16.5514 9.33969 16.6787C9.17532 16.8059 8.97332 16.875 8.76544 16.875H7.5625V18.75H11.4358C11.3728 18.4412 11.3125 18.1309 11.3125 17.8125C11.3125 15.228 13.4155 13.125 16 13.125C18.5845 13.125 20.6875 15.228 20.6875 17.8125C20.6875 18.1309 20.6272 18.4412 20.5642 18.75H24.4375V16.875H23.2346C23.0267 16.875 22.8247 16.806 22.6603 16.6787C22.4959 16.5514 22.3785 16.3731 22.3264 16.1719C22.177 15.5906 21.9436 15.0283 21.6323 14.501C21.5268 14.322 21.4838 14.113 21.5099 13.9068C21.5361 13.7007 21.63 13.5091 21.7769 13.3621L22.6294 12.5088L21.3037 11.1831L20.4504 12.0364C20.1482 12.3396 19.6784 12.3999 19.3106 12.1801C18.7842 11.8699 18.2229 11.6355 17.6406 11.4861C17.4394 11.434 17.2611 11.3166 17.1338 11.1522C17.0066 10.9878 16.9375 10.7858 16.9375 10.5779V9.375H15.0625V10.5779C15.0625 11.0056 14.7732 11.3791 14.3594 11.4861C13.7771 11.6355 13.2158 11.8699 12.6894 12.1802C12.3232 12.3999 11.8526 12.3396 11.5496 12.0364L10.6963 11.1831L9.37062 12.5087L10.2231 13.3621C10.37 13.5091 10.4639 13.7007 10.4901 13.9068C10.5162 14.113 10.4732 14.322 10.3677 14.501C10.0564 15.0283 9.823 15.5906 9.67356 16.1719ZM0 21.5625C0 23.1133 1.26175 24.375 2.8125 24.375H29.125C30.6758 24.375 32 23.1133 32 21.5625V20.625H0V21.5625Z" fill="#CDD5F5"/>
</svg>
