<svg width="64" height="64" viewBox="0 0 64 64" fill="none" xmlns="http://www.w3.org/2000/svg">
<rect width="64" height="64" rx="6" fill="white"/>
<g clip-path="url(#clip0_360_5104)">
<path d="M31.8124 38.0852C30.6924 38.0852 29.7812 38.9964 29.7812 40.1164C29.7812 41.2364 30.6925 42.1476 31.8124 42.1476C32.9323 42.1476 33.8436 41.2364 33.8436 40.1164C33.8436 38.9964 32.9325 38.0852 31.8124 38.0852ZM31.8124 40.5851C31.5539 40.5851 31.3437 40.3749 31.3437 40.1164C31.3437 39.8579 31.5539 39.6476 31.8124 39.6476C32.0709 39.6476 32.2812 39.8579 32.2812 40.1164C32.2812 40.3749 32.0709 40.5851 31.8124 40.5851ZM38.083 35.4961C37.9362 35.3501 37.7378 35.2678 37.5307 35.2671C37.3252 35.2671 37.1237 35.3507 36.9784 35.4961C36.8321 35.6427 36.7498 35.8412 36.7495 36.0483C36.7498 36.2555 36.8321 36.4541 36.9784 36.6007C37.1252 36.7467 37.3236 36.8289 37.5307 36.8296C37.7362 36.8296 37.9377 36.7461 38.083 36.6007C38.229 36.4539 38.3113 36.2554 38.312 36.0483C38.312 35.8429 38.2284 35.6413 38.083 35.4961Z" fill="#253678"/>
<path d="M48.0927 23.249H47.2505L36.2305 12.229C35.9255 11.924 35.4307 11.924 35.1257 12.229L32.3026 15.0522L21.0116 12.0269C20.5948 11.9151 20.1664 12.1625 20.0548 12.5793L17.196 23.249H15.2812C13.472 23.249 12 24.7208 12 26.5301C12 26.5735 12.0016 26.6165 12.0033 26.6595C12.0013 26.6811 12.0002 26.7028 12 26.7245V48.0939C12 50.2476 13.7523 52 15.9062 52H43.8741C43.8862 52 43.898 51.9992 43.9102 51.999H48.0927C50.2465 51.999 51.9987 50.2468 51.9987 48.0929V27.1551C51.9988 25.0012 50.2466 23.249 48.0927 23.249ZM47.3948 24.8114H48.0927C49.3851 24.8114 50.4364 25.8628 50.4364 27.1551V33.4162C50.4364 34.4372 49.6057 35.2679 48.5848 35.2679H47.7802V32.1549C47.7802 30.0283 46.0717 28.2944 43.9553 28.2508L47.3948 24.8114ZM33.0885 16.476L33.0887 16.4757L35.6782 13.8862L45.8943 24.1023L41.7732 28.2234H40.344L42.2134 26.354C42.5184 26.0489 42.5184 25.5542 42.2134 25.2491C41.5809 24.6167 41.5809 23.5878 42.2134 22.9554C42.5184 22.6503 42.5184 22.1556 42.2134 21.8505L37.9299 17.5672C37.6248 17.2621 37.1302 17.2621 36.825 17.5672C36.1926 18.1997 35.1636 18.1997 34.5312 17.5672C34.2262 17.2621 33.7314 17.2621 33.4264 17.5672L22.7702 28.2235H21.3409L33.0885 16.476ZM30.7894 25.2883C29.0059 25.2883 27.5117 26.5476 27.1473 28.2235H24.9797L34.0473 19.1558C35.0482 19.7524 36.308 19.7524 37.3089 19.1558L40.6246 22.4715C40.0281 23.4723 40.0281 24.7323 40.6246 25.7331L38.1342 28.2235H34.4315C34.067 26.5476 32.5729 25.2883 30.7894 25.2883ZM32.8039 28.2235H28.7752C29.0922 27.4206 29.8754 26.8508 30.7895 26.8508C31.7037 26.8508 32.4868 27.4206 32.8039 28.2235ZM20.5152 26.8395L22.5841 19.1182C23.1514 19.1273 23.7157 18.9825 24.2211 18.6905C24.7266 18.3987 25.1333 17.9838 25.4099 17.4867L28.9259 18.4288L23.8235 23.5312L20.5152 26.8395ZM21.3619 13.7383L31.0268 16.328L30.2017 17.1531L25.1525 15.8001C25.0534 15.7735 24.95 15.7667 24.8483 15.7801C24.7466 15.7935 24.6485 15.8268 24.5596 15.8781C24.4708 15.9294 24.3929 15.9977 24.3305 16.0791C24.268 16.1605 24.2222 16.2534 24.1957 16.3526C24.1411 16.5585 24.0462 16.7516 23.9165 16.9207C23.7868 17.0897 23.6248 17.2313 23.44 17.3374C23.2557 17.4445 23.0521 17.5139 22.8408 17.5417C22.6295 17.5695 22.4148 17.5551 22.2091 17.4994C21.7925 17.3877 21.364 17.6351 21.2523 18.0519L18.52 28.2488H17.4737L21.3619 13.7383ZM15.2812 24.8114H16.7772L15.8561 28.2488H15.2811C14.3334 28.2488 13.5624 27.4778 13.5624 26.5301C13.5625 25.5824 14.3336 24.8114 15.2812 24.8114ZM50.4364 48.0929C50.4364 49.3852 49.385 50.4365 48.0927 50.4365H46.9976C47.4888 49.7834 47.7802 48.9721 47.7802 48.0938V44.9551H48.249C49.0649 44.9551 49.8202 44.6923 50.4364 44.2481V48.0929ZM50.4364 41.2052C50.4364 42.4114 49.4551 43.3926 48.249 43.3926H31.8432C30.034 43.3926 28.562 41.9208 28.562 40.1115C28.562 38.3022 30.0339 36.8303 31.8432 36.8303H34.2109C34.6423 36.8303 34.9921 36.4805 34.9921 36.049C34.9921 35.6176 34.6423 35.2678 34.2109 35.2678H31.8432C29.1724 35.2678 26.9996 37.4406 26.9996 40.1114C26.9996 42.7822 29.1724 44.955 31.8432 44.955H46.2178V48.0937C46.2178 49.374 45.1859 50.4179 43.9102 50.4374H17.3123V41.6398C17.3123 41.2084 16.9626 40.8586 16.5311 40.8586C16.0996 40.8586 15.7498 41.2084 15.7498 41.6398V50.4317C14.5302 50.351 13.5624 49.3336 13.5624 48.0939V29.3236C14.0787 29.643 14.674 29.8118 15.2811 29.8112H43.874C45.1663 29.8112 46.2177 30.8626 46.2177 32.1549V35.2679H40.569C40.1375 35.2679 39.7877 35.6177 39.7877 36.0491C39.7877 36.4805 40.1375 36.8304 40.569 36.8304H48.5848C49.242 36.8309 49.8853 36.6405 50.4364 36.2823V41.2052Z" fill="#253678"/>
<path d="M17.0836 38.0404C16.9383 37.8952 16.7367 37.8115 16.5312 37.8115C16.3258 37.8115 16.1242 37.8951 15.9789 38.0404C15.8329 38.1873 15.7507 38.3857 15.75 38.5928C15.75 38.7982 15.8336 38.9998 15.9789 39.1451C16.1242 39.2904 16.3258 39.374 16.5312 39.374C16.7367 39.374 16.9383 39.2904 17.0836 39.1451C17.2289 38.9998 17.3125 38.7982 17.3125 38.5928C17.3117 38.3857 17.2295 38.1873 17.0836 38.0404Z" fill="#253678"/>
</g>
<defs>
<clipPath id="clip0_360_5104">
<rect width="40" height="40" fill="white" transform="translate(12 12)"/>
</clipPath>
</defs>
</svg>
