<svg width="440" height="440" fill="none" xmlns="http://www.w3.org/2000/svg"><g opacity=".1" fill="#fff" clip-path="url(#prefix__clip0_513_5644)"><path d="M-103.525 402.737a11.441 11.441 0 00-.316 2.521h-115.576l44.6-133.715c.216-.83.33-1.684.338-2.543h115.597l-44.643 133.737zM33.865 402.737a11.46 11.46 0 00-.317 2.521H-82.027l44.705-133.694c.216-.837.33-1.698.338-2.564h115.47L33.865 402.737zM171.276 402.737c-.216.822-.33 1.669-.338 2.521H55.362l44.6-133.715c.199-.833.305-1.686.317-2.543h115.618l-44.621 133.737zM-196.209 269l-44.769 133.65a10.97 10.97 0 00-.211 2.608H-317V269h120.791zM299.692 404.266a10.296 10.296 0 01-4.288.992H192.752l44.621-133.694c.209-.837.315-1.699.317-2.564h57.714c1.481.017 2.942.355 4.288.992a10.59 10.59 0 013.525 2.702l49.837 57.155a11.046 11.046 0 012.72 7.28c0 2.69-.969 5.284-2.72 7.28l-49.837 57.155a10.59 10.59 0 01-3.525 2.702z"/></g><defs><clipPath id="prefix__clip0_513_5644"><path fill="#fff" d="M0 0h440v440H0z"/></clipPath></defs></svg>