<svg width="381" height="48" viewBox="0 0 381 48" fill="none" xmlns="http://www.w3.org/2000/svg">
<path d="M50.5 4H1.49998C0.671633 4 0 4.67163 0 5.49998V13.9999H52V5.49998C52 4.67163 51.3284 4 50.5 4ZM38 11H36C35.1716 11 34.5001 10.3283 34.5001 9.5C34.5001 8.67166 35.1717 8.00002 36 8.00002H38C38.8285 8.00002 39.5 8.67166 39.5 9.5C39.5 10.3283 38.8284 11 38 11ZM45 11H43.0001C42.1716 11 41.5001 10.3283 41.5001 9.5C41.5001 8.67166 42.1717 8.00002 43.0001 8.00002H45C45.8285 8.00002 46.5 8.67166 46.5 9.5C46.5 10.3283 45.8284 11 45 11Z" fill="#253678"/>
<path fill-rule="evenodd" clip-rule="evenodd" d="M4 17L4 25.1356C4 30.9758 6.28842 36.4665 10.4436 40.5961C14.5989 44.7257 20.1236 47 26 47C31.8764 47 37.4011 44.7257 41.5564 40.5961C45.7116 36.4665 48 30.9758 48 25.1356V17H4ZM31.061 30.9348C31.1384 30.9156 31.2158 30.9059 31.2932 30.9059C31.7044 30.9059 31.9995 31.2185 31.9898 31.6512V32.1608C31.9898 32.6608 31.5786 33.0695 31.0755 33.0695H30.9642L31.1094 33.4205C31.3464 33.9974 31.5399 34.9686 31.5399 35.5937V39.9352C31.5399 40.4353 31.1287 40.8439 30.6256 40.8439H29.4307C28.9275 40.8439 28.5163 40.4353 28.5163 39.9352V38.8486H18.2264V39.9352C18.2264 40.4353 17.8152 40.8439 17.3121 40.8439H16.1172C15.6141 40.8439 15.2029 40.4353 15.2029 39.9352V35.5937C15.2029 34.9735 15.3964 33.9974 15.6334 33.4205L15.7785 33.0695H15.6818C15.1787 33.0695 14.7675 32.6608 14.7675 32.1608V31.6512C14.7675 31.2185 15.0626 30.9059 15.4738 30.9059C15.5512 30.9059 15.6286 30.9156 15.706 30.9348L16.5623 31.1704L17.4669 28.9876C17.7233 28.3722 18.4829 27.8673 19.1553 27.8673H27.6068C28.2841 27.8673 29.0388 28.3722 29.2952 28.9876L30.1999 31.1752L31.0658 30.9348H31.061ZM17.2202 32.5695L18.5845 29.2616H18.5796C18.7344 28.8914 19.1843 28.5885 19.5907 28.5885H27.1473C27.5536 28.5885 28.0035 28.8914 28.1583 29.2616L29.5226 32.5695C29.6774 32.9397 29.4742 33.2426 29.0678 33.2426H17.6653C17.2734 33.2426 17.0702 32.9397 17.2202 32.5695ZM20.2728 36.7524C20.2728 36.9495 20.1083 37.113 19.91 37.113H17.3121C17.1138 37.113 16.9493 36.9495 16.9493 36.7524V35.5119C16.9493 35.3148 17.1138 35.1513 17.3121 35.1513H19.91C20.1083 35.1513 20.2728 35.3148 20.2728 35.5119V36.7524ZM29.7887 36.7524C29.7887 36.9495 29.6242 37.113 29.4258 37.113H26.828C26.6296 37.113 26.4651 36.9495 26.4651 36.7524V35.5119C26.4651 35.3148 26.6296 35.1513 26.828 35.1513H29.4258C29.6242 35.1513 29.7887 35.3148 29.7887 35.5119V36.7524ZM37.4744 24.6846H35.936L35.9312 24.6798L19.8747 19.593C19.8021 19.5689 19.7247 19.5593 19.6473 19.5593C19.3184 19.5593 19.0329 19.7661 18.9362 20.0786L18.5879 21.1652C18.5298 21.3575 18.5492 21.5594 18.6362 21.7325C18.7282 21.9104 18.883 22.0354 19.0716 22.0979L34.7556 27.0645V39.2526C34.7556 39.666 35.0943 39.9978 35.5055 39.9978H37.4744C37.8905 39.9978 38.2243 39.6612 38.2243 39.2526V25.4298C38.2243 25.0163 37.8856 24.6846 37.4744 24.6846ZM20.7842 21.6748L21.0261 20.92C21.1035 20.6844 20.9729 20.4296 20.7358 20.3526C20.4939 20.2757 20.2424 20.4103 20.165 20.6411L19.9231 21.396C19.8457 21.6364 19.9811 21.8864 20.2134 21.9633C20.2617 21.9777 20.3053 21.9825 20.3537 21.9825C20.5423 21.9825 20.7213 21.8671 20.7842 21.67V21.6748ZM23.4353 22.5162L23.6772 21.7614C23.7546 21.5258 23.6191 21.271 23.3869 21.194C23.145 21.1171 22.8935 21.2517 22.8161 21.4825L22.5742 22.2373C22.4968 22.4777 22.6322 22.7278 22.8693 22.8047C22.9128 22.8191 22.9612 22.8239 23.0096 22.8239C23.1982 22.8239 23.3772 22.7085 23.4401 22.5114L23.4353 22.5162ZM26.0864 23.3576L26.3283 22.6027C26.4057 22.3624 26.2702 22.1123 26.0332 22.0354C25.7913 21.9585 25.5397 22.0931 25.4623 22.3239L25.2204 23.0787C25.143 23.3191 25.2785 23.5691 25.5107 23.6461C25.5591 23.6605 25.6026 23.6653 25.651 23.6653C25.8396 23.6653 26.0187 23.5499 26.0815 23.3528L26.0864 23.3576ZM28.7326 24.1942L28.9745 23.4393C29.0519 23.2037 28.9213 22.9489 28.6843 22.872C28.4424 22.7951 28.1908 22.9297 28.1134 23.1605L27.8715 23.9153C27.7941 24.1557 27.9296 24.4057 28.1618 24.4826C28.2101 24.4971 28.2537 24.5019 28.3021 24.5019C28.4907 24.5019 28.6697 24.3865 28.7326 24.1894V24.1942ZM31.3837 25.0356L31.6256 24.2807C31.703 24.0451 31.5675 23.7903 31.3353 23.7134C31.0934 23.6365 30.8419 23.7711 30.7645 24.0019L30.5226 24.7567C30.4452 24.9971 30.5806 25.2471 30.8129 25.324C30.8612 25.3385 30.9048 25.3433 30.9532 25.3433C31.1418 25.3433 31.3208 25.2279 31.3837 25.0308V25.0356ZM34.0348 25.8769L34.2767 25.1221C34.3493 24.8817 34.2186 24.6317 33.9816 24.5548C33.7397 24.4778 33.4881 24.6125 33.4107 24.8432L33.1688 25.5981C33.0914 25.8385 33.2269 26.0885 33.4591 26.1654C33.5075 26.1798 33.551 26.1847 33.5994 26.1847C33.7881 26.1847 33.9671 26.0693 34.03 25.8721L34.0348 25.8769Z" fill="#253678"/>
<path d="M68 21.7137V5.01085H71.7005L76.9904 14.4121L82.2555 5.01085H85.8566V21.7137H82.1313V11.0954L78.0086 18.3731H75.7983L71.7005 11.0954V21.7137H68Z" fill="#222429"/>
<path d="M97.2537 22C96.1609 22 95.1261 21.8409 94.1493 21.5228C93.1724 21.2046 92.2949 20.7115 91.5167 20.0434C90.7551 19.3594 90.1508 18.4765 89.7037 17.3948C89.2733 16.3131 89.058 15.0087 89.058 13.4816V13.0043C89.058 11.5409 89.2733 10.2921 89.7037 9.25813C90.1508 8.20824 90.7551 7.34924 91.5167 6.68113C92.2949 6.01302 93.1724 5.51988 94.1493 5.20174C95.1261 4.88359 96.1609 4.72451 97.2537 4.72451C98.3464 4.72451 99.3812 4.88359 100.358 5.20174C101.335 5.51988 102.204 6.01302 102.966 6.68113C103.744 7.34924 104.348 8.20824 104.779 9.25813C105.226 10.2921 105.449 11.5409 105.449 13.0043V13.4816C105.449 15.0087 105.226 16.3131 104.779 17.3948C104.348 18.4765 103.744 19.3594 102.966 20.0434C102.204 20.7115 101.335 21.2046 100.358 21.5228C99.3812 21.8409 98.3464 22 97.2537 22ZM97.2537 18.9935C98.0153 18.9935 98.719 18.8265 99.3647 18.4924C100.027 18.1424 100.557 17.5698 100.954 16.7744C101.368 15.9631 101.575 14.8655 101.575 13.4816V13.0043C101.575 11.6999 101.368 10.6659 100.954 9.90239C100.557 9.12292 100.027 8.56616 99.3647 8.2321C98.719 7.89805 98.0153 7.73102 97.2537 7.73102C96.5086 7.73102 95.805 7.89805 95.1427 8.2321C94.4804 8.56616 93.9423 9.12292 93.5284 9.90239C93.131 10.6659 92.9323 11.6999 92.9323 13.0043V13.4816C92.9323 14.8655 93.131 15.9631 93.5284 16.7744C93.9423 17.5698 94.4804 18.1424 95.1427 18.4924C95.805 18.8265 96.5086 18.9935 97.2537 18.9935Z" fill="#222429"/>
<path d="M108.673 21.7137V5.01085H112.373V16.1063L119.948 5.01085H123.524V21.7137H119.824V10.6182L112.224 21.7137H108.673ZM116.098 4.0564C115.039 4.0564 114.153 3.90528 113.441 3.60304C112.746 3.28489 112.232 2.83153 111.901 2.24295C111.57 1.63847 111.405 0.890817 111.405 0H114.534C114.534 0.763557 114.666 1.2885 114.931 1.57484C115.196 1.86117 115.585 2.00434 116.098 2.00434C116.645 2.00434 117.05 1.86117 117.315 1.57484C117.58 1.2885 117.713 0.763557 117.713 0H120.842C120.842 0.890817 120.676 1.63847 120.345 2.24295C120.014 2.83153 119.501 3.28489 118.806 3.60304C118.11 3.90528 117.208 4.0564 116.098 4.0564Z" fill="#222429"/>
<path d="M136.83 22C136.648 22 136.466 21.992 136.284 21.9761C136.118 21.9602 135.969 21.9443 135.837 21.9284V19.0889C135.969 19.1048 136.118 19.1208 136.284 19.1367C136.466 19.1367 136.648 19.1367 136.83 19.1367C137.31 19.1367 137.683 19.081 137.948 18.9696C138.213 18.8583 138.411 18.6753 138.544 18.4208C138.693 18.1663 138.867 17.8402 139.065 17.4425L131.987 5.01085H136.011L140.878 13.9588L144.753 5.01085H148.627L142.741 17.8959C142.393 18.6276 142.037 19.256 141.673 19.7809C141.325 20.3059 140.92 20.7354 140.456 21.0694C140.009 21.3876 139.496 21.6182 138.916 21.7614C138.337 21.9205 137.641 22 136.83 22Z" fill="#222429"/>
<path d="M150.873 21.7137V5.01085H154.574L159.864 14.4121L165.129 5.01085H168.73V21.7137H165.005V11.0954L160.882 18.3731H158.672L154.574 11.0954V21.7137H150.873Z" fill="#222429"/>
<path d="M172.701 21.7137V5.01085H176.402V11.6443H183.852V5.01085H187.553V21.7137H183.852V14.603H176.402V21.7137H172.701Z" fill="#222429"/>
<path d="M191.57 21.7137V5.01085H195.271V10.9761H197.754C200.122 10.9761 201.869 11.4693 202.995 12.4555C204.12 13.4259 204.683 14.7223 204.683 16.3449C204.683 17.9675 204.12 19.2719 202.995 20.2581C201.869 21.2285 200.122 21.7137 197.754 21.7137H191.57ZM195.271 18.7549H197.382C198.706 18.7549 199.633 18.5401 200.163 18.1106C200.71 17.6811 200.983 17.0926 200.983 16.3449C200.983 15.5973 200.71 15.0087 200.163 14.5792C199.633 14.1497 198.706 13.9349 197.382 13.9349H195.271V18.7549ZM206.447 21.7137V5.01085H210.172V21.7137H206.447Z" fill="#222429"/>
<path d="M214.15 21.7137V5.01085H217.851V16.1063L225.425 5.01085H229.002V21.7137H225.301V10.6182L217.702 21.7137H214.15ZM221.576 4.0564C220.516 4.0564 219.63 3.90528 218.918 3.60304C218.223 3.28489 217.71 2.83153 217.379 2.24295C217.048 1.63847 216.882 0.890817 216.882 0H220.011C220.011 0.763557 220.144 1.2885 220.409 1.57484C220.673 1.86117 221.063 2.00434 221.576 2.00434C222.122 2.00434 222.528 1.86117 222.793 1.57484C223.058 1.2885 223.19 0.763557 223.19 0H226.319C226.319 0.890817 226.154 1.63847 225.823 2.24295C225.492 2.83153 224.978 3.28489 224.283 3.60304C223.587 3.90528 222.685 4.0564 221.576 4.0564Z" fill="#222429"/>
<path d="M239.228 21.7137V5.01085H242.928V18.7549H247.647V5.01085H251.348V18.7549H256.091V5.01085H259.816V21.7137H239.228Z" fill="#222429"/>
<path d="M263.399 22C263.267 22 263.101 21.992 262.902 21.9761C262.704 21.9761 262.538 21.9602 262.406 21.9284V18.731C262.455 18.7469 262.58 18.7549 262.778 18.7549C263.109 18.7549 263.407 18.7072 263.672 18.6117C263.937 18.5004 264.161 18.2697 264.343 17.9197C264.525 17.5698 264.674 17.0687 264.79 16.4165C264.906 15.7484 264.989 14.8814 265.038 13.8156C265.104 12.7339 265.138 11.3897 265.138 9.78308V5.01085H277.804V21.7137H274.078V7.96963H268.664V10.2603C268.664 12.2805 268.59 13.9906 268.441 15.3905C268.292 16.7744 268.068 17.9038 267.77 18.7787C267.489 19.6537 267.133 20.3218 266.702 20.7831C266.288 21.2444 265.8 21.5625 265.237 21.7375C264.674 21.9125 264.061 22 263.399 22Z" fill="#222429"/>
<path d="M280.029 21.7137L286.486 5.01085H290.187L296.669 21.7137H292.745L291.404 18.3015H284.971L283.655 21.7137H280.029ZM286.114 15.3427H290.286L288.2 9.54447L286.114 15.3427Z" fill="#222429"/>
<path d="M298.915 21.7137V5.01085H310.315V7.96963H302.616V21.7137H298.915Z" fill="#222429"/>
<path d="M312.812 21.7137V5.01085H325.056V7.96963H316.513V11.167H319.741C322.109 11.167 323.856 11.6522 324.982 12.6226C326.107 13.5929 326.67 14.8655 326.67 16.4403C326.67 18.0152 326.107 19.2878 324.982 20.2581C323.856 21.2285 322.109 21.7137 319.741 21.7137H312.812ZM316.513 18.7549H319.369C320.726 18.7549 321.662 18.556 322.175 18.1584C322.705 17.7448 322.97 17.1721 322.97 16.4403C322.97 15.7086 322.705 15.1439 322.175 14.7462C321.662 14.3326 320.726 14.1258 319.369 14.1258H316.513V18.7549Z" fill="#222429"/>
<path d="M327.371 21.7137L333.829 5.01085H337.529L344.011 21.7137H340.087L338.746 18.3015H332.314L330.997 21.7137H327.371ZM333.456 15.3427H337.628L335.542 9.54447L333.456 15.3427Z" fill="#222429"/>
<path d="M348.1 22C347.918 22 347.736 21.992 347.554 21.9761C347.388 21.9602 347.239 21.9443 347.107 21.9284V19.0889C347.239 19.1048 347.388 19.1208 347.554 19.1367C347.736 19.1367 347.918 19.1367 348.1 19.1367C348.58 19.1367 348.953 19.081 349.218 18.9696C349.483 18.8583 349.681 18.6753 349.814 18.4208C349.963 18.1663 350.137 17.8402 350.335 17.4425L343.257 5.01085H347.281L352.148 13.9588L356.023 5.01085H359.897L354.011 17.8959C353.663 18.6276 353.307 19.256 352.943 19.7809C352.595 20.3059 352.19 20.7354 351.726 21.0694C351.279 21.3876 350.766 21.6182 350.186 21.7614C349.607 21.9205 348.911 22 348.1 22Z" fill="#222429"/>
<path d="M362.143 21.7137V5.01085H365.844L371.134 14.4121L376.399 5.01085H380V21.7137H376.275V11.0954L372.152 18.3731H369.942L365.844 11.0954V21.7137H362.143Z" fill="#222429"/>
<path d="M68 45.2308V36H69.3412V45.2308H68Z" fill="#787D8F"/>
<path d="M74.6697 45.2308V37.0813H71.2025V36H79.478V37.0813H76.0109V45.2308H74.6697Z" fill="#787D8F"/>
<path d="M87.3985 45.3626C86.7517 45.3626 86.1667 45.2352 85.6435 44.9802C85.1299 44.7165 84.7209 44.3209 84.4165 43.7934C84.1216 43.2659 83.9742 42.6022 83.9742 41.8022V41.5385C83.9742 40.7824 84.1359 40.1494 84.4593 39.6396C84.7827 39.1297 85.206 38.7473 85.7292 38.4923C86.2523 38.2374 86.8088 38.1099 87.3985 38.1099C87.9978 38.1099 88.5114 38.211 88.9395 38.4132C89.377 38.6066 89.729 38.8747 89.9953 39.2176C90.2617 39.5516 90.4424 39.9297 90.5375 40.3516H89.2534C89.1012 40.0176 88.8872 39.7363 88.6113 39.5077C88.345 39.2791 87.9407 39.1648 87.3985 39.1648C87.0276 39.1648 86.6804 39.2484 86.357 39.4154C86.0335 39.5736 85.7672 39.8286 85.5579 40.1802C85.3582 40.5231 85.2583 40.9758 85.2583 41.5385V41.8022C85.2583 42.4 85.3582 42.8835 85.5579 43.2527C85.7672 43.622 86.0335 43.8901 86.357 44.0571C86.6804 44.2242 87.0276 44.3077 87.3985 44.3077C87.8646 44.3077 88.2546 44.2022 88.5685 43.9912C88.8919 43.7802 89.1202 43.4901 89.2534 43.1209H90.5375C90.4234 43.578 90.2189 43.978 89.924 44.3209C89.6291 44.6549 89.2677 44.9143 88.8396 45.0989C88.4116 45.2747 87.9312 45.3626 87.3985 45.3626Z" fill="#787D8F"/>
<path d="M92.2486 45.2308V38.2418H93.5042V43.5165L97.4136 38.2418H98.6692V45.2308H97.4136V39.956L93.5042 45.2308H92.2486Z" fill="#787D8F"/>
<path d="M103.882 45.3626C103.235 45.3626 102.65 45.2352 102.127 44.9802C101.613 44.7165 101.204 44.3209 100.9 43.7934C100.605 43.2659 100.458 42.6022 100.458 41.8022V41.5385C100.458 40.7824 100.619 40.1494 100.943 39.6396C101.266 39.1297 101.69 38.7473 102.213 38.4923C102.736 38.2374 103.292 38.1099 103.882 38.1099C104.481 38.1099 104.995 38.211 105.423 38.4132C105.861 38.6066 106.213 38.8747 106.479 39.2176C106.745 39.5516 106.926 39.9297 107.021 40.3516H105.737C105.585 40.0176 105.371 39.7363 105.095 39.5077C104.829 39.2791 104.424 39.1648 103.882 39.1648C103.511 39.1648 103.164 39.2484 102.841 39.4154C102.517 39.5736 102.251 39.8286 102.042 40.1802C101.842 40.5231 101.742 40.9758 101.742 41.5385V41.8022C101.742 42.4 101.842 42.8835 102.042 43.2527C102.251 43.622 102.517 43.8901 102.841 44.0571C103.164 44.2242 103.511 44.3077 103.882 44.3077C104.348 44.3077 104.738 44.2022 105.052 43.9912C105.376 43.7802 105.604 43.4901 105.737 43.1209H107.021C106.907 43.578 106.702 43.978 106.408 44.3209C106.113 44.6549 105.751 44.9143 105.323 45.0989C104.895 45.2747 104.415 45.3626 103.882 45.3626Z" fill="#787D8F"/>
<path d="M110.459 45.2308V39.2703H107.876V38.2418H114.297V39.2703H111.714V45.2308H110.459Z" fill="#787D8F"/>
<path d="M118.727 45.3626C118.089 45.3626 117.49 45.2352 116.929 44.9802C116.377 44.7253 115.93 44.3341 115.588 43.8066C115.255 43.2791 115.088 42.611 115.088 41.8022V41.5385C115.088 40.7648 115.25 40.1275 115.573 39.6264C115.897 39.1165 116.325 38.7385 116.857 38.4923C117.39 38.2374 117.966 38.1099 118.584 38.1099C119.697 38.1099 120.558 38.3912 121.166 38.9538C121.775 39.5165 122.08 40.3121 122.08 41.3407V42.0791H116.344C116.344 42.6242 116.463 43.0593 116.7 43.3846C116.948 43.7099 117.252 43.9473 117.614 44.0967C117.985 44.2374 118.356 44.3077 118.727 44.3077C119.297 44.3077 119.735 44.2198 120.039 44.044C120.353 43.8681 120.577 43.6264 120.71 43.3187H121.937C121.785 43.9868 121.409 44.4967 120.81 44.8484C120.22 45.1912 119.526 45.3626 118.727 45.3626ZM118.655 39.1648C118.265 39.1648 117.894 39.2352 117.542 39.3758C117.19 39.5077 116.9 39.7187 116.672 40.0088C116.453 40.2989 116.344 40.6725 116.344 41.1297H120.895C120.886 40.6462 120.776 40.2637 120.567 39.9824C120.367 39.6923 120.101 39.4857 119.768 39.3626C119.435 39.2308 119.064 39.1648 118.655 39.1648Z" fill="#787D8F"/>
<path d="M123.864 45.2308V38.2418H125.205L127.902 42.5934L130.599 38.2418H131.854V45.2308H130.599V40.1538L128.359 43.7143H127.36L125.12 40.1538V45.2308H123.864Z" fill="#787D8F"/>
<path d="M136.288 45.3626C135.736 45.3626 135.265 45.2703 134.875 45.0857C134.495 44.8923 134.205 44.633 134.005 44.3077C133.805 43.9736 133.705 43.6 133.705 43.1868C133.705 42.4923 133.924 41.9912 134.362 41.6835C134.809 41.3758 135.446 41.222 136.274 41.222H138.728V40.7473C138.728 40.1495 138.58 39.7363 138.285 39.5077C138 39.2791 137.567 39.1648 136.987 39.1648C136.445 39.1648 136.05 39.2615 135.803 39.4549C135.555 39.6396 135.417 39.8505 135.389 40.0879H134.133C134.162 39.7099 134.3 39.3758 134.547 39.0857C134.794 38.7868 135.132 38.5495 135.56 38.3736C135.988 38.1978 136.488 38.1099 137.058 38.1099C137.658 38.1099 138.176 38.1978 138.614 38.3736C139.051 38.5407 139.389 38.8088 139.627 39.178C139.864 39.5385 139.983 40.0176 139.983 40.6154V43.4505C139.983 43.8198 139.983 44.1451 139.983 44.4264C139.993 44.6989 140.017 44.967 140.055 45.2308H138.956C138.927 45.0286 138.908 44.8396 138.899 44.6637C138.889 44.4791 138.885 44.2725 138.885 44.044C138.685 44.4132 138.361 44.7253 137.914 44.9802C137.467 45.2352 136.925 45.3626 136.288 45.3626ZM136.559 44.3077C136.958 44.3077 137.32 44.2418 137.643 44.1099C137.976 43.978 138.238 43.7846 138.428 43.5297C138.628 43.2747 138.728 42.9626 138.728 42.5934V42.1187H136.488C136.021 42.1187 135.655 42.2066 135.389 42.3824C135.123 42.5495 134.989 42.8176 134.989 43.1868C134.989 43.5121 135.113 43.7802 135.36 43.9912C135.617 44.2022 136.017 44.3077 136.559 44.3077Z" fill="#787D8F"/>
<path d="M145.768 45.2308V38.2418H147.024V41.1692H148.022L150.847 38.2418H152.331L149.05 41.5912L152.474 45.2308H150.876L148.022 42.1714H147.024V45.2308H145.768Z" fill="#787D8F"/>
<path d="M156.835 45.3626C156.198 45.3626 155.599 45.2352 155.037 44.9802C154.486 44.7165 154.039 44.3209 153.696 43.7934C153.363 43.2659 153.197 42.6022 153.197 41.8022V41.5385C153.197 40.7824 153.363 40.1494 153.696 39.6396C154.039 39.1297 154.486 38.7473 155.037 38.4923C155.599 38.2374 156.198 38.1099 156.835 38.1099C157.482 38.1099 158.081 38.2374 158.633 38.4923C159.185 38.7473 159.627 39.1297 159.96 39.6396C160.302 40.1494 160.474 40.7824 160.474 41.5385V41.8022C160.474 42.6022 160.302 43.2659 159.96 43.7934C159.627 44.3209 159.185 44.7165 158.633 44.9802C158.081 45.2352 157.482 45.3626 156.835 45.3626ZM156.835 44.3077C157.225 44.3077 157.596 44.2286 157.948 44.0703C158.31 43.9033 158.605 43.6352 158.833 43.2659C159.071 42.8967 159.19 42.4088 159.19 41.8022V41.5385C159.19 40.9758 159.071 40.5231 158.833 40.1802C158.605 39.8286 158.31 39.5736 157.948 39.4154C157.596 39.2484 157.225 39.1648 156.835 39.1648C156.455 39.1648 156.084 39.2484 155.722 39.4154C155.361 39.5736 155.061 39.8286 154.823 40.1802C154.595 40.5231 154.481 40.9758 154.481 41.5385V41.8022C154.481 42.4088 154.595 42.8967 154.823 43.2659C155.061 43.6352 155.361 43.9033 155.722 44.0703C156.084 44.2286 156.455 44.3077 156.835 44.3077Z" fill="#787D8F"/>
<path d="M162.252 45.2308V38.2418H163.507V41.156H167.417V38.2418H168.672V45.2308H167.417V42.1846H163.507V45.2308H162.252Z" fill="#787D8F"/>
<path d="M172.687 45.2308V39.2703H170.104V38.2418H176.525V39.2703H173.942V45.2308H172.687Z" fill="#787D8F"/>
<path d="M177.955 47.8681V38.2418H179.125V39.5604C179.382 39.0945 179.738 38.7385 180.195 38.4923C180.661 38.2374 181.199 38.1099 181.807 38.1099C182.759 38.1099 183.519 38.4 184.09 38.9802C184.661 39.5516 184.946 40.4044 184.946 41.5385V41.8022C184.946 42.5934 184.813 43.2527 184.547 43.7802C184.29 44.3077 183.924 44.7033 183.448 44.967C182.982 45.2308 182.435 45.3626 181.807 45.3626C181.16 45.3626 180.618 45.2308 180.181 44.967C179.753 44.7033 179.429 44.3736 179.21 43.978V47.8681H177.955ZM181.522 44.3341C182.14 44.3341 182.654 44.1187 183.063 43.6879C183.481 43.2571 183.691 42.6286 183.691 41.8022V41.5385C183.691 40.7736 183.481 40.1846 183.063 39.7714C182.654 39.3495 182.14 39.1385 181.522 39.1385C181.065 39.1385 180.661 39.2264 180.309 39.4022C179.967 39.578 179.696 39.8198 179.496 40.1275C179.306 40.4264 179.21 40.7648 179.21 41.1429V42.1978C179.21 42.6198 179.306 42.9934 179.496 43.3187C179.696 43.6352 179.967 43.8857 180.309 44.0703C180.661 44.2462 181.065 44.3341 181.522 44.3341Z" fill="#787D8F"/>
<path d="M189.872 45.3626C189.235 45.3626 188.636 45.2352 188.074 44.9802C187.523 44.7165 187.076 44.3209 186.733 43.7934C186.4 43.2659 186.234 42.6022 186.234 41.8022V41.5385C186.234 40.7824 186.4 40.1494 186.733 39.6396C187.076 39.1297 187.523 38.7473 188.074 38.4923C188.636 38.2374 189.235 38.1099 189.872 38.1099C190.519 38.1099 191.118 38.2374 191.67 38.4923C192.222 38.7473 192.664 39.1297 192.997 39.6396C193.339 40.1494 193.511 40.7824 193.511 41.5385V41.8022C193.511 42.6022 193.339 43.2659 192.997 43.7934C192.664 44.3209 192.222 44.7165 191.67 44.9802C191.118 45.2352 190.519 45.3626 189.872 45.3626ZM189.872 44.3077C190.262 44.3077 190.633 44.2286 190.985 44.0703C191.347 43.9033 191.641 43.6352 191.87 43.2659C192.107 42.8967 192.226 42.4088 192.226 41.8022V41.5385C192.226 40.9758 192.107 40.5231 191.87 40.1802C191.641 39.8286 191.347 39.5736 190.985 39.4154C190.633 39.2484 190.262 39.1648 189.872 39.1648C189.492 39.1648 189.121 39.2484 188.759 39.4154C188.398 39.5736 188.098 39.8286 187.86 40.1802C187.632 40.5231 187.518 40.9758 187.518 41.5385V41.8022C187.518 42.4088 187.632 42.8967 187.86 43.2659C188.098 43.6352 188.398 43.9033 188.759 44.0703C189.121 44.2286 189.492 44.3077 189.872 44.3077Z" fill="#787D8F"/>
<path d="M194.792 45.3626C194.726 45.3626 194.654 45.3582 194.578 45.3494C194.512 45.3407 194.44 45.3319 194.364 45.3231V44.1626C194.393 44.1714 194.464 44.1758 194.578 44.1758C194.864 44.1758 195.097 44.0615 195.278 43.833C195.458 43.5956 195.587 43.1824 195.663 42.5934C195.748 41.9956 195.791 41.1604 195.791 40.0879V38.2418H201.213V45.2308H199.957V39.2703H197.047V40.3516C197.047 41.3275 196.999 42.1407 196.904 42.7912C196.809 43.433 196.666 43.9429 196.476 44.3209C196.295 44.6989 196.062 44.967 195.777 45.1253C195.492 45.2835 195.163 45.3626 194.792 45.3626Z" fill="#787D8F"/>
<path d="M202.925 45.2308L204.979 42.4615C204.352 42.3297 203.9 42.0923 203.624 41.7495C203.348 41.3978 203.21 40.9495 203.21 40.4044C203.21 39.9473 203.31 39.5604 203.51 39.244C203.709 38.9187 204.019 38.6725 204.437 38.5055C204.856 38.3297 205.398 38.2418 206.064 38.2418H209.345V45.2308H208.09V42.567H206.164L204.323 45.2308H202.925ZM204.466 40.4044C204.466 40.7736 204.58 41.0549 204.808 41.2484C205.046 41.4418 205.441 41.5385 205.992 41.5385H208.09V39.2703H205.992C205.441 39.2703 205.046 39.367 204.808 39.5604C204.58 39.7538 204.466 40.0352 204.466 40.4044Z" fill="#787D8F"/>
<path d="M215.2 45.2308V38.2418H216.455V43.5165L220.365 38.2418H221.62V45.2308H220.365V39.956L216.455 45.2308H215.2Z" fill="#787D8F"/>
<path d="M228.474 48C228.331 48 228.189 47.9868 228.046 47.9604V46.9055C228.189 46.9319 228.331 46.9451 228.474 46.9451C228.664 46.9451 228.821 46.9011 228.945 46.8132C229.078 46.7341 229.211 46.5714 229.344 46.3253C229.478 46.0791 229.639 45.7143 229.83 45.2308L226.619 38.2418H228.018L230.472 43.9121L232.698 38.2418H234.039L231.185 45.2308C230.919 45.8901 230.662 46.422 230.415 46.8264C230.177 47.2308 229.906 47.5253 229.601 47.7099C229.306 47.9033 228.931 48 228.474 48Z" fill="#787D8F"/>
<path d="M235.459 45.2308V38.2418H241.737V45.2308H240.482V39.2703H236.715V45.2308H235.459Z" fill="#787D8F"/>
<path d="M244.015 47.8681V38.2418H245.185V39.5604C245.442 39.0945 245.798 38.7385 246.255 38.4923C246.721 38.2374 247.258 38.1099 247.867 38.1099C248.818 38.1099 249.579 38.4 250.15 38.9802C250.721 39.5516 251.006 40.4044 251.006 41.5385V41.8022C251.006 42.5934 250.873 43.2527 250.607 43.7802C250.35 44.3077 249.984 44.7033 249.508 44.967C249.042 45.2308 248.495 45.3626 247.867 45.3626C247.22 45.3626 246.678 45.2308 246.241 44.967C245.812 44.7033 245.489 44.3736 245.27 43.978V47.8681H244.015ZM247.582 44.3341C248.2 44.3341 248.714 44.1187 249.123 43.6879C249.541 43.2571 249.75 42.6286 249.75 41.8022V41.5385C249.75 40.7736 249.541 40.1846 249.123 39.7714C248.714 39.3495 248.2 39.1385 247.582 39.1385C247.125 39.1385 246.721 39.2264 246.369 39.4022C246.026 39.578 245.755 39.8198 245.556 40.1275C245.365 40.4264 245.27 40.7648 245.27 41.1429V42.1978C245.27 42.6198 245.365 42.9934 245.556 43.3187C245.755 43.6352 246.026 43.8857 246.369 44.0703C246.721 44.2462 247.125 44.3341 247.582 44.3341Z" fill="#787D8F"/>
<path d="M254.947 45.3626C254.396 45.3626 253.925 45.2703 253.535 45.0857C253.154 44.8923 252.864 44.633 252.665 44.3077C252.465 43.9736 252.365 43.6 252.365 43.1868C252.365 42.4923 252.584 41.9912 253.021 41.6835C253.468 41.3758 254.106 41.222 254.933 41.222H257.387V40.7473C257.387 40.1495 257.24 39.7363 256.945 39.5077C256.66 39.2791 256.227 39.1648 255.647 39.1648C255.104 39.1648 254.71 39.2615 254.462 39.4549C254.215 39.6396 254.077 39.8505 254.049 40.0879H252.793C252.821 39.7099 252.959 39.3758 253.207 39.0857C253.454 38.7868 253.792 38.5495 254.22 38.3736C254.648 38.1978 255.147 38.1099 255.718 38.1099C256.317 38.1099 256.836 38.1978 257.273 38.3736C257.711 38.5407 258.048 38.8088 258.286 39.178C258.524 39.5385 258.643 40.0176 258.643 40.6154V43.4505C258.643 43.8198 258.643 44.1451 258.643 44.4264C258.652 44.6989 258.676 44.967 258.714 45.2308H257.616C257.587 45.0286 257.568 44.8396 257.558 44.6637C257.549 44.4791 257.544 44.2725 257.544 44.044C257.344 44.4132 257.021 44.7253 256.574 44.9802C256.127 45.2352 255.585 45.3626 254.947 45.3626ZM255.219 44.3077C255.618 44.3077 255.979 44.2418 256.303 44.1099C256.636 43.978 256.897 43.7846 257.088 43.5297C257.287 43.2747 257.387 42.9626 257.387 42.5934V42.1187H255.147C254.681 42.1187 254.315 42.2066 254.049 42.3824C253.782 42.5495 253.649 42.8176 253.649 43.1868C253.649 43.5121 253.773 43.7802 254.02 43.9912C254.277 44.2022 254.676 44.3077 255.219 44.3077Z" fill="#787D8F"/>
<path d="M260.861 45.2308V38.2418H264.142C264.77 38.2418 265.284 38.3253 265.683 38.4923C266.083 38.6505 266.378 38.8747 266.568 39.1648C266.758 39.4462 266.853 39.7758 266.853 40.1538C266.853 40.4615 266.744 40.756 266.525 41.0374C266.316 41.3099 266.045 41.4989 265.712 41.6044C266.178 41.7099 266.53 41.9121 266.768 42.211C267.015 42.5011 267.139 42.844 267.139 43.2396C267.139 43.8462 266.92 44.3297 266.482 44.6901C266.045 45.0505 265.36 45.2308 264.428 45.2308H260.861ZM262.116 44.2022H264.428C264.96 44.2022 265.336 44.1143 265.555 43.9385C265.774 43.7626 265.883 43.5121 265.883 43.1868C265.883 42.8527 265.774 42.5978 265.555 42.422C265.336 42.2374 264.96 42.1451 264.428 42.1451H262.116V44.2022ZM262.116 41.1956H264.142C264.684 41.1956 265.06 41.1077 265.269 40.9319C265.488 40.756 265.598 40.5143 265.598 40.2066C265.598 39.9165 265.488 39.6879 265.269 39.5209C265.06 39.3538 264.684 39.2703 264.142 39.2703H262.116V41.1956Z" fill="#787D8F"/>
<path d="M268.571 45.3626C268.505 45.3626 268.434 45.3582 268.357 45.3494C268.291 45.3407 268.22 45.3319 268.143 45.3231V44.1626C268.172 44.1714 268.243 44.1758 268.357 44.1758C268.643 44.1758 268.876 44.0615 269.057 43.833C269.237 43.5956 269.366 43.1824 269.442 42.5934C269.527 41.9956 269.57 41.1604 269.57 40.0879V38.2418H274.992V45.2308H273.737V39.2703H270.826V40.3516C270.826 41.3275 270.778 42.1407 270.683 42.7912C270.588 43.433 270.445 43.9429 270.255 44.3209C270.074 44.6989 269.841 44.967 269.556 45.1253C269.271 45.2835 268.942 45.3626 268.571 45.3626Z" fill="#787D8F"/>
<path d="M280.413 45.3626C279.776 45.3626 279.177 45.2352 278.616 44.9802C278.064 44.7253 277.617 44.3341 277.274 43.8066C276.942 43.2791 276.775 42.611 276.775 41.8022V41.5385C276.775 40.7648 276.937 40.1275 277.26 39.6264C277.584 39.1165 278.012 38.7385 278.544 38.4923C279.077 38.2374 279.653 38.1099 280.271 38.1099C281.384 38.1099 282.245 38.3912 282.853 38.9538C283.462 39.5165 283.766 40.3121 283.766 41.3407V42.0791H278.031C278.031 42.6242 278.15 43.0593 278.387 43.3846C278.635 43.7099 278.939 43.9473 279.301 44.0967C279.672 44.2374 280.043 44.3077 280.413 44.3077C280.984 44.3077 281.422 44.2198 281.726 44.044C282.04 43.8681 282.264 43.6264 282.397 43.3187H283.624C283.472 43.9868 283.096 44.4967 282.497 44.8484C281.907 45.1912 281.212 45.3626 280.413 45.3626ZM280.342 39.1648C279.952 39.1648 279.581 39.2352 279.229 39.3758C278.877 39.5077 278.587 39.7187 278.359 40.0088C278.14 40.2989 278.031 40.6725 278.031 41.1297H282.582C282.573 40.6462 282.463 40.2637 282.254 39.9824C282.054 39.6923 281.788 39.4857 281.455 39.3626C281.122 39.2308 280.751 39.1648 280.342 39.1648Z" fill="#787D8F"/>
<path d="M285.551 45.2308V38.2418H286.807V41.156H290.716V38.2418H291.972V45.2308H290.716V42.1846H286.807V45.2308H285.551Z" fill="#787D8F"/>
<path d="M294.26 45.2308V38.2418H295.515V43.5165L299.425 38.2418H300.68V45.2308H299.425V39.956L295.515 45.2308H294.26Z" fill="#787D8F"/>
<path d="M302.398 45.2308L304.452 42.4615C303.824 42.3297 303.373 42.0923 303.097 41.7495C302.821 41.3978 302.683 40.9495 302.683 40.4044C302.683 39.9473 302.783 39.5604 302.983 39.244C303.182 38.9187 303.491 38.6725 303.91 38.5055C304.329 38.3297 304.871 38.2418 305.537 38.2418H308.818V45.2308H307.563V42.567H305.636L303.796 45.2308H302.398ZM303.939 40.4044C303.939 40.7736 304.053 41.0549 304.281 41.2484C304.519 41.4418 304.914 41.5385 305.465 41.5385H307.563V39.2703H305.465C304.914 39.2703 304.519 39.367 304.281 39.5604C304.053 39.7538 303.939 40.0352 303.939 40.4044Z" fill="#787D8F"/>
<path d="M313.817 46.8791V44.2022H314.744C314.887 44.0264 315.01 43.7319 315.115 43.3187C315.22 42.8967 315.3 42.4044 315.357 41.8418C315.424 41.2791 315.457 40.6945 315.457 40.0879V38.2418H320.737V44.2022H321.807V46.8791H320.608V45.2308H315.015V46.8791H313.817ZM316.028 44.2022H319.481V39.2703H316.684V40.3516C316.684 41.0901 316.627 41.8066 316.513 42.5011C316.409 43.1868 316.247 43.7538 316.028 44.2022Z" fill="#787D8F"/>
<path d="M326.45 45.3626C325.813 45.3626 325.214 45.2352 324.653 44.9802C324.101 44.7165 323.654 44.3209 323.312 43.7934C322.979 43.2659 322.812 42.6022 322.812 41.8022V41.5385C322.812 40.7824 322.979 40.1494 323.312 39.6396C323.654 39.1297 324.101 38.7473 324.653 38.4923C325.214 38.2374 325.813 38.1099 326.45 38.1099C327.097 38.1099 327.697 38.2374 328.248 38.4923C328.8 38.7473 329.242 39.1297 329.575 39.6396C329.918 40.1494 330.089 40.7824 330.089 41.5385V41.8022C330.089 42.6022 329.918 43.2659 329.575 43.7934C329.242 44.3209 328.8 44.7165 328.248 44.9802C327.697 45.2352 327.097 45.3626 326.45 45.3626ZM326.45 44.3077C326.84 44.3077 327.211 44.2286 327.563 44.0703C327.925 43.9033 328.22 43.6352 328.448 43.2659C328.686 42.8967 328.805 42.4088 328.805 41.8022V41.5385C328.805 40.9758 328.686 40.5231 328.448 40.1802C328.22 39.8286 327.925 39.5736 327.563 39.4154C327.211 39.2484 326.84 39.1648 326.45 39.1648C326.07 39.1648 325.699 39.2484 325.338 39.4154C324.976 39.5736 324.676 39.8286 324.439 40.1802C324.21 40.5231 324.096 40.9758 324.096 41.5385V41.8022C324.096 42.4088 324.21 42.8967 324.439 43.2659C324.676 43.6352 324.976 43.9033 325.338 44.0703C325.699 44.2286 326.07 44.3077 326.45 44.3077Z" fill="#787D8F"/>
<path d="M334.792 45.3626C334.145 45.3626 333.56 45.2352 333.037 44.9802C332.523 44.7165 332.114 44.3209 331.81 43.7934C331.515 43.2659 331.367 42.6022 331.367 41.8022V41.5385C331.367 40.7824 331.529 40.1494 331.853 39.6396C332.176 39.1297 332.599 38.7473 333.122 38.4923C333.646 38.2374 334.202 38.1099 334.792 38.1099C335.391 38.1099 335.905 38.211 336.333 38.4132C336.77 38.6066 337.122 38.8747 337.389 39.2176C337.655 39.5516 337.836 39.9297 337.931 40.3516H336.647C336.494 40.0176 336.28 39.7363 336.005 39.5077C335.738 39.2791 335.334 39.1648 334.792 39.1648C334.421 39.1648 334.074 39.2484 333.75 39.4154C333.427 39.5736 333.16 39.8286 332.951 40.1802C332.751 40.5231 332.652 40.9758 332.652 41.5385V41.8022C332.652 42.4 332.751 42.8835 332.951 43.2527C333.16 43.622 333.427 43.8901 333.75 44.0571C334.074 44.2242 334.421 44.3077 334.792 44.3077C335.258 44.3077 335.648 44.2022 335.962 43.9912C336.285 43.7802 336.513 43.4901 336.647 43.1209H337.931C337.817 43.578 337.612 43.978 337.317 44.3209C337.022 44.6549 336.661 44.9143 336.233 45.0989C335.805 45.2747 335.324 45.3626 334.792 45.3626Z" fill="#787D8F"/>
<path d="M341.368 45.2308V39.2703H338.786V38.2418H345.206V39.2703H342.624V45.2308H341.368Z" fill="#787D8F"/>
<path d="M347.914 48C347.771 48 347.629 47.9868 347.486 47.9604V46.9055C347.629 46.9319 347.771 46.9451 347.914 46.9451C348.104 46.9451 348.261 46.9011 348.385 46.8132C348.518 46.7341 348.651 46.5714 348.784 46.3253C348.918 46.0791 349.079 45.7143 349.269 45.2308L346.059 38.2418H347.457L349.912 43.9121L352.137 38.2418H353.479L350.625 45.2308C350.359 45.8901 350.102 46.422 349.854 46.8264C349.617 47.2308 349.346 47.5253 349.041 47.7099C348.746 47.9033 348.371 48 347.914 48Z" fill="#787D8F"/>
<path d="M354.899 45.2308V38.2418H361.177V45.2308H359.922V39.2703H356.155V45.2308H354.899Z" fill="#787D8F"/>
<path d="M366.594 45.3626C365.956 45.3626 365.357 45.2352 364.796 44.9802C364.244 44.7165 363.797 44.3209 363.455 43.7934C363.122 43.2659 362.955 42.6022 362.955 41.8022V41.5385C362.955 40.7824 363.122 40.1494 363.455 39.6396C363.797 39.1297 364.244 38.7473 364.796 38.4923C365.357 38.2374 365.956 38.1099 366.594 38.1099C367.24 38.1099 367.84 38.2374 368.391 38.4923C368.943 38.7473 369.385 39.1297 369.718 39.6396C370.061 40.1494 370.232 40.7824 370.232 41.5385V41.8022C370.232 42.6022 370.061 43.2659 369.718 43.7934C369.385 44.3209 368.943 44.7165 368.391 44.9802C367.84 45.2352 367.24 45.3626 366.594 45.3626ZM366.594 44.3077C366.984 44.3077 367.354 44.2286 367.706 44.0703C368.068 43.9033 368.363 43.6352 368.591 43.2659C368.829 42.8967 368.948 42.4088 368.948 41.8022V41.5385C368.948 40.9758 368.829 40.5231 368.591 40.1802C368.363 39.8286 368.068 39.5736 367.706 39.4154C367.354 39.2484 366.984 39.1648 366.594 39.1648C366.213 39.1648 365.842 39.2484 365.481 39.4154C365.119 39.5736 364.82 39.8286 364.582 40.1802C364.353 40.5231 364.239 40.9758 364.239 41.5385V41.8022C364.239 42.4088 364.353 42.8967 364.582 43.2659C364.82 43.6352 365.119 43.9033 365.481 44.0703C365.842 44.2286 366.213 44.3077 366.594 44.3077Z" fill="#787D8F"/>
<path d="M372.01 45.2308V38.2418H373.351L376.048 42.5934L378.744 38.2418H380V45.2308H378.744V40.1538L376.504 43.7143H375.506L373.265 40.1538V45.2308H372.01Z" fill="#787D8F"/>
</svg>
