<svg width="32" height="32" viewBox="0 0 32 32" fill="none" xmlns="http://www.w3.org/2000/svg">
<path d="M31.1935 27.9168L30.4182 25.2139C30.3822 24.9973 30.4233 24.7749 30.5344 24.5855C31.4934 22.9513 32.0002 21.0806 32.0002 19.1759C32.0002 13.6933 27.8579 9.16075 22.5387 8.54163C23.0243 9.87894 23.2896 11.3211 23.2896 12.8241C23.2896 13.0876 23.2805 13.349 23.2644 13.6086H26.7719C27.2767 13.6086 27.7111 13.9965 27.7349 14.5008C27.7603 15.0391 27.3312 15.4836 26.7984 15.4836H23.0059C22.8004 16.4355 22.4842 17.3601 22.0637 18.2385H26.7719C27.2767 18.2385 27.7111 18.6264 27.7349 19.1307C27.7603 19.6691 27.3312 20.1135 26.7984 20.1135H20.9575C20.2089 21.1626 19.3048 22.0916 18.2764 22.8684H26.772C27.2768 22.8684 27.7112 23.2564 27.7349 23.7606C27.7603 24.299 27.3313 24.7434 26.7985 24.7434H15.7933C15.5859 24.7434 15.395 24.6753 15.2397 24.5613C14.3567 24.9034 13.4375 25.1439 12.5 25.278C14.4359 28.0591 17.6552 29.8831 21.293 29.8831C23.1977 29.8831 25.0683 29.3763 26.7026 28.4174C26.892 28.3062 27.1144 28.2651 27.331 28.3013L30.0338 29.0764C30.7417 29.2794 31.3965 28.6246 31.1935 27.9168Z" fill="#CDD5F5"/>
<path d="M10.7072 23.5313C16.6111 23.5313 21.4144 18.7281 21.4144 12.8241C21.4144 6.89632 16.6351 2.11701 10.7074 2.11688C4.80338 2.11676 0 6.92001 0 12.8241C0 14.7288 0.506875 16.5993 1.46581 18.2337C1.57694 18.4231 1.61806 18.6455 1.582 18.8621L0.80675 21.5649C0.60375 22.2728 1.25856 22.9276 1.96637 22.7246L4.66925 21.9493C4.88586 21.9134 5.10821 21.9545 5.29763 22.0656C6.93194 23.0244 8.80256 23.5313 10.7072 23.5313ZM10.7072 19.724C10.1816 19.724 9.79244 19.2944 9.76969 18.7865C9.747 18.2802 10.2168 17.849 10.7072 17.849C11.2327 17.849 11.6219 18.2786 11.6447 18.7865C11.6674 19.2928 11.1976 19.724 10.7072 19.724ZM7.1175 9.51382C7.1175 7.53444 8.72781 5.92407 10.7072 5.92407C12.6866 5.92407 14.2969 7.53444 14.2969 9.51382C14.2969 11.1689 13.1708 12.566 11.6447 12.9793V15.2723C11.6447 15.7901 11.2249 16.2098 10.7072 16.2098C10.1894 16.2098 9.76969 15.7901 9.76969 15.2723V12.1659C9.76969 11.6482 10.1894 11.2284 10.7072 11.2284C11.6527 11.2284 12.4219 10.4593 12.4219 9.51376C12.4219 8.56826 11.6527 7.79901 10.7072 7.79901C9.76175 7.79901 8.9925 8.56826 8.9925 9.51376C8.9925 10.0315 8.57275 10.4513 8.055 10.4513C7.53725 10.4513 7.1175 10.0316 7.1175 9.51382Z" fill="#253678"/>
</svg>
