<svg width="32" height="32" viewBox="0 0 32 32" fill="none" xmlns="http://www.w3.org/2000/svg">
<g clip-path="url(#clip0_627_1215)">
<path fill-rule="evenodd" clip-rule="evenodd" d="M16.412 3.00696C13.779 2.92015 11.1847 3.64682 8.99413 5.08467C6.53115 6.70253 4.72735 9.12158 3.89978 11.9167C3.67568 11.8898 3.40733 11.9016 3.08868 11.9902C1.89898 12.3222 1.00459 13.2797 0.602253 14.1232C0.0800237 15.2226 -0.140053 16.6769 0.0920937 18.1774C0.322631 19.6737 0.965963 20.907 1.77063 21.6727C2.57771 22.4388 3.489 22.6878 4.39425 22.5008C5.74207 22.2182 6.41035 22.0067 6.22165 20.7734L5.30835 14.7925C5.40111 13.1647 5.87778 11.5803 6.70074 10.1646C7.52369 8.74891 8.67039 7.54057 10.0503 6.63504C11.9099 5.4127 14.1128 4.79403 16.349 4.86608C18.5851 4.93812 20.7421 5.69726 22.5162 7.03666C23.7411 7.95937 24.7483 9.13149 25.4688 10.4726C26.1893 11.8137 26.606 13.2921 26.6904 14.8063L26.0515 18.9898C25.3583 20.8569 24.1405 22.4926 22.5394 23.7072C20.9384 24.9218 19.0197 25.6656 17.0058 25.8522H14.2836C14.117 25.8518 13.952 25.8838 13.7981 25.9462C13.6441 26.0087 13.5042 26.1004 13.3864 26.2161C13.2685 26.3318 13.1751 26.4692 13.1115 26.6204C13.0478 26.7716 13.0152 26.9337 13.0155 27.0974V27.7544C13.0151 27.9181 13.0477 28.0802 13.1114 28.2315C13.175 28.3828 13.2684 28.5203 13.3862 28.636C13.504 28.7517 13.644 28.8435 13.798 28.9059C13.952 28.9684 14.117 29.0004 14.2836 29H17.7159C17.8823 29.0003 18.0472 28.9682 18.2009 28.9057C18.3547 28.8432 18.4944 28.7514 18.612 28.6357C18.7295 28.52 18.8227 28.3827 18.8861 28.2315C18.9494 28.0803 18.9818 27.9183 18.9813 27.7548V27.4109C22.0651 26.669 24.7516 24.8138 26.5065 22.2143L27.6061 22.5008C28.5009 22.7289 29.423 22.4384 30.2297 21.6727C31.0344 20.9066 31.6773 19.6737 31.9083 18.1774C32.1416 16.6765 31.9147 15.2249 31.3989 14.1232C30.8811 13.0215 30.1098 12.3218 29.2195 12.0708C28.8465 11.9653 28.4417 11.9265 28.0945 11.9167C27.3472 9.38873 25.7981 7.16117 23.6729 5.55824C21.5838 3.98251 19.0443 3.09021 16.412 3.00696Z" fill="#253678"/>
<path fill-rule="evenodd" clip-rule="evenodd" d="M20.5771 14.0306C21.0276 14.0311 21.4595 14.2037 21.778 14.5105C22.0965 14.8173 22.2756 15.2332 22.276 15.667C22.2752 16.1007 22.096 16.5165 21.7774 16.8232C21.4589 17.1299 21.0271 17.3026 20.5767 17.3033C20.1257 17.3034 19.6932 17.1311 19.3741 16.8243C19.055 16.5175 18.8754 16.1012 18.8749 15.667C18.875 15.4519 18.9191 15.2389 19.0047 15.0403C19.0903 14.8416 19.2157 14.6611 19.3737 14.5091C19.5317 14.3571 19.7193 14.2366 19.9257 14.1544C20.1321 14.0722 20.3533 14.03 20.5767 14.0302L20.5771 14.0306ZM16.0004 14.0306C16.3365 14.0307 16.6649 14.1268 16.9442 14.3067C17.2236 14.4866 17.4412 14.7422 17.5698 15.0412C17.6983 15.3402 17.7318 15.6692 17.6662 15.9865C17.6006 16.3039 17.4387 16.5954 17.201 16.8242C16.9634 17.053 16.6606 17.2088 16.3311 17.2719C16.0015 17.335 15.6598 17.3026 15.3494 17.1788C15.0389 17.055 14.7735 16.8453 14.5868 16.5763C14.4001 16.3072 14.3003 15.9909 14.3003 15.6674C14.3 15.4523 14.3439 15.2393 14.4292 15.0406C14.5146 14.8419 14.6398 14.6613 14.7977 14.5092C14.9557 14.3572 15.1432 14.2366 15.3495 14.1544C15.5559 14.0722 15.7771 14.0304 16.0004 14.0306ZM11.425 14.0306C11.6513 14.0258 11.8763 14.0645 12.0869 14.1446C12.2974 14.2247 12.4893 14.3444 12.6511 14.4969C12.8129 14.6493 12.9415 14.8313 13.0293 15.0322C13.1171 15.2332 13.1623 15.449 13.1623 15.667C13.1623 15.8849 13.1171 16.1007 13.0293 16.3017C12.9415 16.5026 12.8129 16.6846 12.6511 16.837C12.4893 16.9895 12.2974 17.1092 12.0869 17.1893C11.8763 17.2694 11.6513 17.3081 11.425 17.3033C10.9788 17.2966 10.5533 17.1212 10.2403 16.815C9.92726 16.5088 9.75181 16.0964 9.75181 15.6667C9.75181 15.2371 9.92726 14.8247 10.2403 14.5185C10.5533 14.2123 10.9788 14.0373 11.425 14.0306ZM16.0004 7C11.0164 7 7 10.7403 7 15.6666C7 18.0326 7.92906 20.1237 9.44257 21.658L8.9055 23.9764C8.72842 24.7394 9.27795 25.2526 9.99044 24.8707L12.3411 23.6078C13.4961 24.0893 14.7418 24.3365 16.0004 24.3339C20.9861 24.3339 25 20.596 25 15.6678C25 10.7411 20.9861 7.0008 16.0004 7.0008V7Z" fill="#CDD5F5"/>
</g>
<defs>
<clipPath id="clip0_627_1215">
<rect width="32" height="32" fill="white"/>
</clipPath>
</defs>
</svg>
