<?xml version="1.0" encoding="utf-8"?><svg width="32" height="32" fill="none" xmlns="http://www.w3.org/2000/svg" viewBox="0 0 32 32"><path d="M31.194 27.917l-.776-2.703a.938.938 0 01.116-.628A10.696 10.696 0 0032 19.175c0-5.483-4.142-10.015-9.461-10.634a12.523 12.523 0 01.725 5.067h3.508c.505 0 .94.387.963.892a.938.938 0 01-.937.983h-3.792a12.479 12.479 0 01-.942 2.754h4.708c.505 0 .94.388.963.893a.938.938 0 01-.937.982h-5.84a12.69 12.69 0 01-2.682 2.755h8.496c.505 0 .94.388.963.893a.937.937 0 01-.936.982H15.793a.932.932 0 01-.553-.182c-.883.342-1.803.583-2.74.717a10.702 10.702 0 0014.203 3.14.936.936 0 01.628-.117l2.703.775a.938.938 0 001.16-1.16z" fill="#CDD5F5"/><path d="M10.707 23.531c5.904 0 10.707-4.803 10.707-10.707 0-5.928-4.779-10.707-10.707-10.707C4.803 2.117 0 6.92 0 12.824c0 1.905.507 3.775 1.466 5.41.11.19.152.411.116.628l-.775 2.703a.938.938 0 001.16 1.16l2.702-.776a.939.939 0 01.629.117 10.698 10.698 0 005.41 1.465zm0-3.807c-.525 0-.915-.43-.937-.938-.023-.506.447-.937.937-.937.526 0 .915.43.938.938.022.506-.447.937-.938.937zm-3.59-10.21c0-1.98 1.61-3.59 3.59-3.59 1.98 0 3.59 1.61 3.59 3.59a3.596 3.596 0 01-2.652 3.465v2.293a.938.938 0 01-1.875 0v-3.106c0-.518.42-.938.937-.938.946 0 1.715-.769 1.715-1.714 0-.946-.77-1.715-1.715-1.715-.945 0-1.715.77-1.715 1.715a.938.938 0 01-1.875 0z" fill="#253678"/></svg>