<?xml version="1.0" encoding="utf-8"?><svg width="32" height="32" fill="none" xmlns="http://www.w3.org/2000/svg" viewBox="0 0 32 32"><path d="M6 31h10a5 5 0 005-5v-5a1 1 0 00-2 0v2H3V6a3.009 3.009 0 013-3h4a1 1 0 100-2H6a5 5 0 00-5 5v20a5 5 0 005 5zm5-5a1 1 0 110 2 1 1 0 010-2z" fill="#253678"/><path d="M14.098 1.68A3 3 0 0116 1h12a3 3 0 012.94 2.412L22 7.882l-8.941-4.47a3 3 0 011.039-1.732z" fill="#CDD5F5"/><path d="M21.553 9.9L13 5.618V12a3 3 0 003 3h12a3 3 0 003-3V5.618L22.447 9.9a1.007 1.007 0 01-.894 0z" fill="#CDD5F5"/></svg>