<?xml version="1.0" encoding="utf-8"?><svg width="32" height="32" fill="none" xmlns="http://www.w3.org/2000/svg" viewBox="0 0 32 32"><g clip-path="url(#gclip0_627_5475)"><path d="M16 5.953c.518 0 .938-.42.938-.938V1.92a.938.938 0 00-1.875 0v3.096c0 .518.42.938.937.938zm4.375 1.59a.934.934 0 00.663-.274l2.5-2.5a.938.938 0 00-1.326-1.326l-2.5 2.5a.937.937 0 00.663 1.6zm-9.413-.274a.935.935 0 001.326 0 .938.938 0 000-1.326l-2.5-2.5A.938.938 0 008.462 4.77l2.5 2.5zm13.459 6.963l-3.64-3.64a3.751 3.751 0 00-2.651-1.098h-5.693c-1.419 0-2.753.553-3.756 1.556l-.3.3-.02.019H.938a.937.937 0 00-.937.937v10c0 .518.42.938.938.938h4.674l2.225 2.225a.938.938 0 00.663.275h.849a3.942 3.942 0 01-.596-1.598 3.99 3.99 0 01-1.326-6.841l3.563-2.99h7.115c.249 0 .487.098.663.274l2.617 2.618c.841.84 2.235.858 3.061.003.803-.83.794-2.159-.025-2.978z" fill="#CDD5F5"/><path d="M32 14.244a.937.937 0 00-.938-.938h-4.966a4.005 4.005 0 01-.35 5.257 3.973 3.973 0 01-2.828 1.17 3.973 3.973 0 01-2.828-1.17l-2.373-2.373h-6.22l-.736.618-2.379 1.995a2.11 2.11 0 002.712 3.232 2.11 2.11 0 102.712 3.232 2.11 2.11 0 102.712 3.232l1.66-1.394-.224.188a2.11 2.11 0 002.712 3.232l6.368-5.344h4.029c.517 0 .937-.42.937-.937v-10z" fill="#253678"/></g><defs><clipPath id="gclip0_627_5475"><path fill="#fff" d="M0 0h32v32H0z"/></clipPath></defs></svg>