<?xml version="1.0" encoding="utf-8"?><svg width="32" height="32" fill="none" xmlns="http://www.w3.org/2000/svg" viewBox="0 0 32 32"><path d="M28 1.667h-8A2.333 2.333 0 0017.667 4v8A2.333 2.333 0 0020 14.333h8A2.333 2.333 0 0030.334 12V4A2.333 2.333 0 0028 1.667z" fill="#253678"/><path d="M30.31 22.35l-4.66-4.66a2.337 2.337 0 00-3.3 0l-4.66 4.66a2.336 2.336 0 000 3.3l4.66 4.66a2.336 2.336 0 003.3 0l4.66-4.66a2.335 2.335 0 000-3.3z" fill="#CDD5F5" class="fpath-rotate"/><path d="M12 1.667H4A2.333 2.333 0 001.667 4v8A2.333 2.333 0 004 14.333h8A2.333 2.333 0 0014.334 12V4A2.333 2.333 0 0012 1.667zm0 16H4A2.333 2.333 0 001.667 20v8A2.333 2.333 0 004 30.333h8A2.333 2.333 0 0014.334 28v-8A2.333 2.333 0 0012 17.667z" fill="#253678"/></svg>