<?xml version="1.0" encoding="utf-8"?><svg width="32" height="32" fill="none" xmlns="http://www.w3.org/2000/svg" viewBox="0 0 32 32"><g clip-path="url(#hclip0_606_2137)"><path d="M30.134 15.186L12.107 2.168a1.874 1.874 0 00-2.559.345L3.624 9.888a1.877 1.877 0 00.372 2.7l15.948 11.389a.938.938 0 001.13-.03l9.097-7.268a.938.938 0 00-.037-1.493zM23.5 16.844a.938.938 0 110-1.875.938.938 0 010 1.875zM31.245 18.22l.346.236c.45.307.546.936.2 1.364l-4.402 5.454a.938.938 0 01-1.277.173l-2.057-1.481 7.19-5.746z" fill="#253678"/><path d="M9.924 19.683a.938.938 0 01-.231-1.31l.729-1.036 7.605 5.432-.642.943a.937.937 0 01-1.31.243l-.937-.652a12.03 12.03 0 01-8.992 4.041H4.875v1.906a.937.937 0 11-1.875 0v-9.562a.938.938 0 011.875 0v2.031h1.759a5.67 5.67 0 003.935-1.589l-.645-.447z" fill="#CDD5F5"/></g><defs><clipPath id="hclip0_606_2137"><path fill="#fff" d="M0 0h32v32H0z"/></clipPath></defs></svg>