<?xml version="1.0" encoding="utf-8"?><svg width="32" height="32" fill="none" xmlns="http://www.w3.org/2000/svg" viewBox="0 0 32 32"><g clip-path="url(#oclip0_627_1215)" fill-rule="evenodd" clip-rule="evenodd"><path d="M16.412 3.007a12.758 12.758 0 00-7.418 2.078A12.394 12.394 0 003.9 11.917a2.077 2.077 0 00-.811.073c-1.19.332-2.084 1.29-2.487 2.133-.522 1.1-.742 2.554-.51 4.054.23 1.497.874 2.73 1.679 3.496.807.766 1.718 1.015 2.623.828 1.348-.283 2.016-.494 1.828-1.728l-.914-5.98c.093-1.628.57-3.213 1.393-4.628a10.593 10.593 0 013.35-3.53 10.837 10.837 0 016.298-1.769c2.236.072 4.393.831 6.167 2.17a10.563 10.563 0 012.953 3.437 10.375 10.375 0 011.221 4.333l-.639 4.184a10.523 10.523 0 01-3.512 4.717 10.806 10.806 0 01-5.533 2.145h-2.722a1.284 1.284 0 00-.898.364 1.24 1.24 0 00-.37.881v.657a1.221 1.221 0 00.37.882 1.266 1.266 0 00.898.364h3.432a1.282 1.282 0 00.896-.364 1.24 1.24 0 00.37-.881v-.344a12.635 12.635 0 007.524-5.197l1.1.287c.895.228 1.817-.063 2.624-.828.804-.766 1.447-2 1.678-3.496.234-1.5.007-2.952-.51-4.054-.517-1.101-1.288-1.801-2.178-2.052a4.72 4.72 0 00-1.125-.154 12.36 12.36 0 00-4.422-6.359 12.73 12.73 0 00-7.261-2.551z" fill="#253678"/><path d="M20.577 14.03c.45.001.882.174 1.201.48.319.307.498.723.498 1.157 0 .434-.18.85-.499 1.156-.318.307-.75.48-1.2.48-.451 0-.884-.172-1.203-.479a1.584 1.584 0 01-.37-1.784c.086-.198.212-.379.37-.53.158-.153.345-.273.552-.356.206-.082.427-.124.65-.124h.001zm-4.577 0c.337 0 .665.097.944.277.28.18.497.435.626.734.128.3.162.628.096.945a1.618 1.618 0 01-.465.838 1.72 1.72 0 01-.87.448 1.76 1.76 0 01-.982-.093 1.687 1.687 0 01-.762-.603 1.594 1.594 0 01.21-2.067c.159-.152.346-.272.553-.355.206-.082.427-.124.65-.123zm-4.575 0c.226-.004.451.035.662.115.21.08.402.2.564.352.162.152.29.334.378.535a1.585 1.585 0 010 1.27c-.088.2-.216.383-.378.535a1.708 1.708 0 01-.564.352c-.21.08-.436.12-.662.114a1.732 1.732 0 01-1.185-.488 1.606 1.606 0 01-.488-1.148c0-.43.175-.842.488-1.149a1.731 1.731 0 011.185-.487zM16 7c-4.984 0-9 3.74-9 8.667 0 2.366.93 4.457 2.443 5.991l-.537 2.318c-.178.763.372 1.277 1.084.895l2.351-1.263c1.155.481 2.4.729 3.66.726 4.985 0 8.999-3.738 8.999-8.666C25 10.74 20.986 7 16 7V7z" fill="#CDD5F5"/></g><defs><clipPath id="oclip0_627_1215"><path fill="#fff" d="M0 0h32v32H0z"/></clipPath></defs></svg>