<?xml version="1.0" encoding="utf-8"?><svg width="32" height="32" fill="none" xmlns="http://www.w3.org/2000/svg" viewBox="0 0 32 32"><path d="M25.375 28.125H22.3l-.625-1.875h-11.35L9.7 28.125H6.625a.937.937 0 100 1.875h18.75a.937.937 0 100-1.875zm0-22.5a.938.938 0 10.001 1.876.938.938 0 00-.001-1.876z" fill="#253678"/><path d="M29.125 0H2.812A2.816 2.816 0 000 2.813V18.75h5.688v-2.813c0-.518.419-.937.937-.937h1.448c.098-.273.209-.541.334-.803l-1.025-1.025a.937.937 0 010-1.326l2.651-2.651a.937.937 0 011.326 0l1.025 1.025a8.39 8.39 0 01.803-.334V8.438c0-.519.42-.938.938-.938h3.75c.518 0 .938.42.938.938v1.448c.273.097.54.209.803.334l1.025-1.025a.938.938 0 011.326 0l2.65 2.65a.937.937 0 010 1.327l-1.024 1.025c.125.262.236.53.334.803h1.448c.518 0 .938.42.938.938v2.812H32V2.812C32 1.262 30.676 0 29.125 0zm-3.75 9.375a2.816 2.816 0 01-2.813-2.813 2.816 2.816 0 012.813-2.812 2.816 2.816 0 012.813 2.813 2.816 2.816 0 01-2.813 2.812z" fill="#253678"/><path d="M13.188 17.813c0 .324.074.636.181.937h5.262c.107-.301.181-.613.181-.938A2.816 2.816 0 0016 15a2.816 2.816 0 00-2.813 2.813z" fill="#253678"/><path d="M9.674 16.172a.938.938 0 01-.909.703H7.562v1.875h3.874c-.063-.309-.123-.62-.123-.938A4.693 4.693 0 0116 13.125a4.693 4.693 0 014.688 4.688c0 .318-.06.628-.124.937h3.873v-1.875h-1.202a.938.938 0 01-.909-.703 6.442 6.442 0 00-.694-1.671.938.938 0 01.145-1.139l.852-.853-1.325-1.326-.854.853a.933.933 0 01-1.14.144 6.447 6.447 0 00-1.67-.694.939.939 0 01-.703-.908V9.375h-1.875v1.203c0 .428-.289.801-.703.908a6.444 6.444 0 00-1.67.694.934.934 0 01-1.14-.144l-.853-.853-1.325 1.326.852.853a.938.938 0 01.145 1.139 6.444 6.444 0 00-.694 1.67zM0 21.562a2.816 2.816 0 002.813 2.813h26.312c1.55 0 2.875-1.262 2.875-2.813v-.937H0v.938z" fill="#CDD5F5"/></svg>