<?xml version="1.0" encoding="utf-8"?><svg viewBox="0 0 60 68" xmlns="http://www.w3.org/2000/svg" xmlns:xlink="http://www.w3.org/1999/xlink"><style>:root>svg{display:none}:root>svg:target{display:block}</style><svg fill="none" viewBox="0 0 9 16" id="ic_arrow-left" xmlns="http://www.w3.org/2000/svg"><path fill-rule="evenodd" clip-rule="evenodd" d="M.293.293a1 1 0 011.414 0l7 7a1 1 0 010 1.414l-7 7a1 1 0 01-1.414-1.414L6.586 8 .293 1.707a1 1 0 010-1.414z" fill="#fff"/></svg><svg fill="none" viewBox="0 0 24 24" id="ic_chevron" xmlns="http://www.w3.org/2000/svg"><path d="M9 19l7-7-7-7" stroke="#253678" stroke-width="2" stroke-linecap="round" stroke-linejoin="round"/></svg><svg fill="none" viewBox="0 0 32 32" id="ic_faq" xmlns="http://www.w3.org/2000/svg"><path d="M31.194 27.917l-.776-2.703a.938.938 0 01.116-.628A10.696 10.696 0 0032 19.175c0-5.483-4.142-10.015-9.461-10.634a12.523 12.523 0 01.725 5.067h3.508c.505 0 .94.387.963.892a.938.938 0 01-.937.983h-3.792a12.479 12.479 0 01-.942 2.754h4.708c.505 0 .94.388.963.893a.938.938 0 01-.937.982h-5.84a12.69 12.69 0 01-2.682 2.755h8.496c.505 0 .94.388.963.893a.937.937 0 01-.936.982H15.793a.932.932 0 01-.553-.182c-.883.342-1.803.583-2.74.717a10.702 10.702 0 0014.203 3.14.936.936 0 01.628-.117l2.703.775a.938.938 0 001.16-1.16z" fill="#CDD5F5"/><path d="M10.707 23.531c5.904 0 10.707-4.803 10.707-10.707 0-5.928-4.779-10.707-10.707-10.707C4.803 2.117 0 6.92 0 12.824c0 1.905.507 3.775 1.466 5.41.11.19.152.411.116.628l-.775 2.703a.938.938 0 001.16 1.16l2.702-.776a.939.939 0 01.629.117 10.698 10.698 0 005.41 1.465zm0-3.807c-.525 0-.915-.43-.937-.938-.023-.506.447-.937.937-.937.526 0 .915.43.938.938.022.506-.447.937-.938.937zm-3.59-10.21c0-1.98 1.61-3.59 3.59-3.59 1.98 0 3.59 1.61 3.59 3.59a3.596 3.596 0 01-2.652 3.465v2.293a.938.938 0 01-1.875 0v-3.106c0-.518.42-.938.937-.938.946 0 1.715-.769 1.715-1.714 0-.946-.77-1.715-1.715-1.715-.945 0-1.715.77-1.715 1.715a.938.938 0 01-1.875 0z" fill="#253678"/></svg><svg viewBox="0 0 9 16" id="ic_fb" xmlns="http://www.w3.org/2000/svg"><path d="M7.332 2.657h1.552V.113A21.278 21.278 0 006.623 0c-2.238 0-3.77 1.325-3.77 3.76V6H.382v2.844h2.47V16h3.026V8.845h2.37L8.625 6H5.879V4.04c0-.822.236-1.384 1.453-1.384z"/></svg><svg fill="none" viewBox="0 0 32 32" id="ic_feature" xmlns="http://www.w3.org/2000/svg"><path d="M28 1.667h-8A2.333 2.333 0 0017.667 4v8A2.333 2.333 0 0020 14.333h8A2.333 2.333 0 0030.334 12V4A2.333 2.333 0 0028 1.667z" fill="#253678"/><path d="M30.31 22.35l-4.66-4.66a2.337 2.337 0 00-3.3 0l-4.66 4.66a2.336 2.336 0 000 3.3l4.66 4.66a2.336 2.336 0 003.3 0l4.66-4.66a2.335 2.335 0 000-3.3z" fill="#CDD5F5" class="epath-rotate"/><path d="M12 1.667H4A2.333 2.333 0 001.667 4v8A2.333 2.333 0 004 14.333h8A2.333 2.333 0 0014.334 12V4A2.333 2.333 0 0012 1.667zm0 16H4A2.333 2.333 0 001.667 20v8A2.333 2.333 0 004 30.333h8A2.333 2.333 0 0014.334 28v-8A2.333 2.333 0 0012 17.667z" fill="#253678"/></svg><svg fill="none" viewBox="0 0 32 32" id="ic_hard" xmlns="http://www.w3.org/2000/svg"><g clip-path="url(#fclip0_606_2137)"><path d="M30.134 15.186L12.107 2.168a1.874 1.874 0 00-2.559.345L3.624 9.888a1.877 1.877 0 00.372 2.7l15.948 11.389a.938.938 0 001.13-.03l9.097-7.268a.938.938 0 00-.037-1.493zM23.5 16.844a.938.938 0 110-1.875.938.938 0 010 1.875zM31.245 18.22l.346.236c.45.307.546.936.2 1.364l-4.402 5.454a.938.938 0 01-1.277.173l-2.057-1.481 7.19-5.746z" fill="#253678"/><path d="M9.924 19.683a.938.938 0 01-.231-1.31l.729-1.036 7.605 5.432-.642.943a.937.937 0 01-1.31.243l-.937-.652a12.03 12.03 0 01-8.992 4.041H4.875v1.906a.937.937 0 11-1.875 0v-9.562a.938.938 0 011.875 0v2.031h1.759a5.67 5.67 0 003.935-1.589l-.645-.447z" fill="#CDD5F5"/></g><defs><clipPath id="fclip0_606_2137"><path fill="#fff" d="M0 0h32v32H0z"/></clipPath></defs></svg><svg fill="none" viewBox="0 0 24 24" id="ic_heart" xmlns="http://www.w3.org/2000/svg"><path d="M20.458 4.591a5.255 5.255 0 00-1.708-1.177 5.122 5.122 0 00-4.028 0 5.255 5.255 0 00-1.708 1.177L12 5.638 10.986 4.59a5.182 5.182 0 00-3.722-1.59 5.183 5.183 0 00-3.722 1.59A5.52 5.52 0 002 8.431a5.52 5.52 0 001.542 3.841l1.014 1.047L12 21l7.444-7.681 1.014-1.047a5.446 5.446 0 001.141-1.761 5.581 5.581 0 000-4.158 5.445 5.445 0 00-1.141-1.762v0z" stroke="#DF1F26" stroke-width="2" stroke-linecap="round" stroke-linejoin="round"/></svg><svg fill="#fff" viewBox="0 0 8 6" id="ic_ok" xmlns="http://www.w3.org/2000/svg"><path fill-rule="evenodd" clip-rule="evenodd" d="M7.707.293a1 1 0 010 1.414l-4 4a1 1 0 01-1.414 0l-2-2a1 1 0 011.414-1.414L3 3.586 6.293.293a1 1 0 011.414 0z"/></svg><svg fill="none" viewBox="0 0 60 68" id="ic_pin" xmlns="http://www.w3.org/2000/svg"><g clip-path="url(#iclip0_507_5633)"><g filter="url(#ifilter0_f_507_5633)"><path d="M30.51 56.523a.5.5 0 01-.5.477c-.29 0-.51-.21-.52-.477-.145-3.168-1.756-5.217-4.832-6.147C14.53 47.968 7 38.863 7 28 7 15.297 17.297 5 30 5s23 10.297 23 23c0 10.863-7.53 19.968-17.658 22.376-3.076.93-4.687 2.98-4.83 6.147h-.002z" fill="red"/></g><path d="M30.51 56.523a.5.5 0 01-.5.477c-.29 0-.51-.21-.52-.477-.145-3.168-1.756-5.217-4.832-6.147C14.53 47.968 7 38.863 7 28 7 15.297 17.297 5 30 5s23 10.297 23 23c0 10.863-7.53 19.968-17.658 22.376-3.076.93-4.687 2.98-4.83 6.147h-.002z" fill="red"/><path d="M30 68c-2.21 0-4-1.79-4-4s1.79-4 4-4 4 1.79 4 4-1.79 4-4 4z" fill="#fff"/><path d="M30 66a2 2 0 10.09-3.998A2 2 0 0030 66z" fill="#000"/><path fill-rule="evenodd" clip-rule="evenodd" d="M30 34.2V39h11.4a.6.6 0 00.6-.6V24.6a.6.6 0 00-.6-.6h-4.954l-.158 2H40v1h-3.79l-.159 2H40v1h-4.028l-.373 4.715a.303.303 0 01-.323.284.306.306 0 01-.276-.309V18.4a.4.4 0 00-.4-.4H34v-.6a.4.4 0 00-.4-.4H23.4a.4.4 0 00-.4.4v.6h-.6a.4.4 0 00-.4.4v20a.6.6 0 00.6.6H27v-4.8c0-.11.09-.2.2-.2h2.6c.11 0 .2.09.2.2zM25.5 31v-6h2v6h-2zm4-6v6h2v-6h-2zm-4-2v-3h2v3h-2zm4-3v3h2v-3h-2zM37 33v-1h3v1h-3z" fill="#fff"/><path d="M36.525 23l.08-1h2.994c.22 0 .4.18.4.4v.6h-3.474z" fill="#fff"/></g><defs><clipPath id="iclip0_507_5633"><path fill="#fff" d="M0 0h60v68H0z"/></clipPath><filter id="ifilter0_f_507_5633" x="1" y="-1" width="58" height="64" filterUnits="userSpaceOnUse" color-interpolation-filters="sRGB"><feFlood flood-opacity="0" result="BackgroundImageFix"/><feBlend in="SourceGraphic" in2="BackgroundImageFix" result="shape"/><feGaussianBlur stdDeviation="3" result="effect1_foregroundBlur_507_5633"/></filter></defs></svg><svg fill="none" viewBox="0 0 24 24" id="ic_play" xmlns="http://www.w3.org/2000/svg"><path d="M20.853 10.252c1.372.762 1.372 2.734 0 3.496L8.971 20.35C7.638 21.09 6 20.126 6 18.601V5.399C6 3.874 7.638 2.91 8.971 3.651l11.882 6.6z" fill="#253678"/></svg><svg fill="none" viewBox="0 0 32 32" id="ic_soft" xmlns="http://www.w3.org/2000/svg"><path d="M25.375 28.125H22.3l-.625-1.875h-11.35L9.7 28.125H6.625a.937.937 0 100 1.875h18.75a.937.937 0 100-1.875zm0-22.5a.938.938 0 10.001 1.876.938.938 0 00-.001-1.876z" fill="#253678"/><path d="M29.125 0H2.812A2.816 2.816 0 000 2.813V18.75h5.688v-2.813c0-.518.419-.937.937-.937h1.448c.098-.273.209-.541.334-.803l-1.025-1.025a.937.937 0 010-1.326l2.651-2.651a.937.937 0 011.326 0l1.025 1.025a8.39 8.39 0 01.803-.334V8.438c0-.519.42-.938.938-.938h3.75c.518 0 .938.42.938.938v1.448c.273.097.54.209.803.334l1.025-1.025a.938.938 0 011.326 0l2.65 2.65a.937.937 0 010 1.327l-1.024 1.025c.125.262.236.53.334.803h1.448c.518 0 .938.42.938.938v2.812H32V2.812C32 1.262 30.676 0 29.125 0zm-3.75 9.375a2.816 2.816 0 01-2.813-2.813 2.816 2.816 0 012.813-2.812 2.816 2.816 0 012.813 2.813 2.816 2.816 0 01-2.813 2.812z" fill="#253678"/><path d="M13.188 17.813c0 .324.074.636.181.937h5.262c.107-.301.181-.613.181-.938A2.816 2.816 0 0016 15a2.816 2.816 0 00-2.813 2.813z" fill="#253678"/><path d="M9.674 16.172a.938.938 0 01-.909.703H7.562v1.875h3.874c-.063-.309-.123-.62-.123-.938A4.693 4.693 0 0116 13.125a4.693 4.693 0 014.688 4.688c0 .318-.06.628-.124.937h3.873v-1.875h-1.202a.938.938 0 01-.909-.703 6.442 6.442 0 00-.694-1.671.938.938 0 01.145-1.139l.852-.853-1.325-1.326-.854.853a.933.933 0 01-1.14.144 6.447 6.447 0 00-1.67-.694.939.939 0 01-.703-.908V9.375h-1.875v1.203c0 .428-.289.801-.703.908a6.444 6.444 0 00-1.67.694.934.934 0 01-1.14-.144l-.853-.853-1.325 1.326.852.853a.938.938 0 01.145 1.139 6.444 6.444 0 00-.694 1.67zM0 21.562a2.816 2.816 0 002.813 2.813h26.312c1.55 0 2.875-1.262 2.875-2.813v-.937H0v.938z" fill="#CDD5F5"/></svg><svg viewBox="0 0 16 14" id="ic_tg" xmlns="http://www.w3.org/2000/svg"><path d="M6.279 9.096l-.265 3.723c.379 0 .543-.163.74-.358l1.775-1.697 3.679 2.695c.674.376 1.15.178 1.332-.621l2.415-11.316c.214-.997-.36-1.388-1.018-1.143L.743 5.813c-.969.376-.954.916-.165 1.161l3.629 1.129 8.43-5.274c.396-.263.757-.118.46.145L6.279 9.096z"/></svg><svg viewBox="0 0 16 13" id="ic_tw" xmlns="http://www.w3.org/2000/svg"><path d="M16 1.543a6.872 6.872 0 01-1.645 1.696 9.368 9.368 0 01-.376 3.066 9.453 9.453 0 01-1.177 2.517 9.91 9.91 0 01-1.868 2.143c-.724.615-1.597 1.11-2.62 1.482a9.666 9.666 0 01-3.278.548A9.106 9.106 0 010 11.523c.237.027.5.04.792.04a6.42 6.42 0 004.07-1.4 3.214 3.214 0 01-1.908-.65 3.235 3.235 0 01-1.157-1.625c.223.034.43.051.62.051.29 0 .578-.037.862-.112a3.259 3.259 0 01-1.888-1.126A3.201 3.201 0 01.65 4.609v-.04c.46.257.954.395 1.482.416a3.275 3.275 0 01-1.066-1.168A3.195 3.195 0 01.67 2.254c0-.596.149-1.147.447-1.655a9.373 9.373 0 002.985 2.426A9.22 9.22 0 007.878 4.03a3.643 3.643 0 01-.081-.75c0-.908.318-1.68.954-2.316A3.169 3.169 0 0111.076 0c.948 0 1.746.345 2.396 1.036a6.43 6.43 0 002.081-.792 3.184 3.184 0 01-1.441 1.807A6.534 6.534 0 0016 1.543z"/></svg><svg viewBox="0 0 20 20" id="ic_vb" xmlns="http://www.w3.org/2000/svg"><path d="M17.745 1.948c-.524-.457-2.64-1.914-7.36-1.934 0 0-5.565-.316-8.276 2.043C.602 3.487.07 5.584.013 8.18c-.058 2.597-.128 7.464 4.819 8.784h.004l-.004 2.015s-.033.817.535.98c.684.204 1.088-.417 1.743-1.085.358-.367.852-.906 1.227-1.316 3.386.27 5.985-.348 6.281-.438.684-.21 4.552-.68 5.178-5.546.65-5.023-.313-8.194-2.051-9.627zm.572 9.26c-.531 4.062-3.666 4.32-4.242 4.496-.247.074-2.534.613-5.404.437 0 0-2.142 2.449-2.81 3.086-.218.207-.457.187-.452-.223 0-.27.016-3.347.016-3.347-.004 0-.004 0 0 0-4.193-1.102-3.946-5.246-3.9-7.413.045-2.168.477-3.945 1.754-5.14 2.294-1.973 7.019-1.68 7.019-1.68 3.99.016 5.902 1.156 6.347 1.539 1.47 1.195 2.22 4.054 1.672 8.245zm-5.725-3.156c.016.336-.515.36-.532.024-.045-.86-.469-1.278-1.342-1.324-.354-.02-.322-.524.029-.504 1.149.058 1.787.683 1.845 1.804zm.836.442c.041-1.656-1.05-2.953-3.122-3.098-.35-.023-.313-.527.037-.504 2.389.164 3.662 1.723 3.616 3.613-.004.336-.54.32-.531-.011zm1.936.523c.004.336-.532.34-.532.004-.024-3.183-2.26-4.918-4.975-4.937-.35-.004-.35-.504 0-.504 3.036.02 5.478 2.008 5.507 5.437zm-.466 3.832v.007c-.444.742-1.276 1.563-2.133 1.3l-.008-.01c-.87-.231-2.917-1.231-4.21-2.208-.667-.5-1.277-1.09-1.746-1.656a12.643 12.643 0 01-1.269-1.82c-.877-1.503-1.07-2.175-1.07-2.175-.277-.813.584-1.602 1.37-2.023h.009c.379-.188.741-.125.984.152 0 0 .511.578.73.863.205.266.481.691.626.93.25.425.094.859-.153 1.039l-.494.375c-.251.19-.218.546-.218.546s.733 2.629 3.472 3.293c0 0 .375.031.576-.207l.396-.469c.19-.234.646-.383 1.095-.144.606.324 1.376.828 1.887 1.285.288.222.354.562.156.921z"/></svg><svg viewBox="0 0 19 11" id="ic_vk" xmlns="http://www.w3.org/2000/svg"><path d="M17.57 8.059c-.393-.414-.84-.785-1.27-1.143-.154-.128-.313-.26-.466-.39-.438-.377-.454-.519-.107-.947.24-.295.495-.59.742-.876.224-.26.455-.527.677-.796l.045-.055c.424-.515.862-1.047 1.095-1.689.06-.17.124-.418-.021-.627-.145-.208-.427-.272-.627-.301a1.946 1.946 0 00-.287-.017l-2.774-.002h-.023c-.42 0-.702.174-.864.53a13.74 13.74 0 01-.519 1.05c-.385.688-.875 1.48-1.584 2.141l-.03.028c-.084.08-.179.169-.248.169a.133.133 0 01-.035-.006c-.147-.05-.246-.362-.241-.507v-.006L11.03 1.8l-.003-.03c-.07-.457-.226-.742-.817-.843a.278.278 0 00-.048-.004H7.278c-.47 0-.729.168-.972.419-.066.067-.202.206-.135.376.07.172.292.208.365.22.361.06.564.254.622.593.1.588.113 1.216.039 1.975a1.49 1.49 0 01-.129.514c-.015.032-.07.138-.127.138-.018 0-.07-.006-.165-.063-.224-.135-.387-.327-.578-.564A12.863 12.863 0 014.53 1.817a.986.986 0 00-.92-.592c-.46-.006-.878-.01-1.276-.01-.435 0-.839.004-1.232.012-.337.005-.57.093-.693.263s-.115.394.024.664C1.544 4.32 2.55 5.896 3.697 7.261c.804.956 1.61 1.618 2.536 2.082.977.49 2.071.729 3.345.729.145 0 .294-.003.445-.01.74-.031 1.015-.266 1.05-.9.016-.323.057-.662.238-.951.114-.183.22-.183.256-.183.067 0 .151.028.241.079.161.092.3.216.413.324l.317.31c.228.224.464.456.71.675.538.481 1.132.693 1.813.647h2.56a.755.755 0 00.602-.34c.16-.248.157-.564-.008-.847a4.587 4.587 0 00-.645-.817z"/></svg><svg viewBox="0 0 16 17" id="ic_wa" xmlns="http://www.w3.org/2000/svg"><path d="M9.719 9.385c.27-.34.451-.51.541-.51.09 0 .428.153 1.01.458.591.306.904.49.938.552.014.035.021.087.021.157 0 .229-.059.493-.177.791-.111.271-.358.5-.74.688-.381.18-.736.27-1.062.27-.396 0-1.056-.215-1.98-.645a5.945 5.945 0 01-1.77-1.23C6 9.41 5.486 8.768 4.958 7.99c-.5-.743-.746-1.417-.74-2.021v-.084c.022-.632.279-1.18.772-1.645a.788.788 0 01.541-.23c.042 0 .104.007.188.021.083.007.15.01.198.01.132 0 .222.025.27.074.056.041.112.135.167.28.056.14.17.445.344.918.174.472.26.732.26.78 0 .147-.121.348-.364.605-.236.25-.354.41-.354.48 0 .048.017.1.052.155.236.507.59.983 1.062 1.427.39.368.913.72 1.573 1.053.083.048.16.072.23.072.103 0 .29-.166.562-.5zm-1.573 5.01a6.33 6.33 0 002.531-.52 6.581 6.581 0 002.094-1.396 6.613 6.613 0 001.396-2.083c.347-.813.52-1.66.52-2.542a6.33 6.33 0 00-.52-2.531 6.582 6.582 0 00-1.396-2.094 6.581 6.581 0 00-2.094-1.396 6.329 6.329 0 00-2.531-.52c-.882 0-1.73.173-2.542.52-.805.348-1.5.813-2.083 1.396a6.582 6.582 0 00-1.396 2.094 6.329 6.329 0 00-.52 2.531c0 1.41.416 2.688 1.25 3.833l-.824 2.428 2.521-.803a6.406 6.406 0 003.594 1.084zM5.094.626A7.669 7.669 0 018.146 0c1.062 0 2.076.208 3.041.625a7.918 7.918 0 012.51 1.677 7.918 7.918 0 011.678 2.51c.417.966.625 1.98.625 3.042 0 1.063-.208 2.08-.625 3.052a7.947 7.947 0 01-1.677 2.5 7.916 7.916 0 01-2.51 1.677 7.594 7.594 0 01-3.042.625 7.735 7.735 0 01-3.802-.979L0 16.125l1.417-4.219A7.666 7.666 0 01.292 7.854c0-1.062.208-2.076.625-3.042a7.917 7.917 0 011.677-2.51 7.948 7.948 0 012.5-1.677z"/></svg></svg>